<svg width="137" height="28" viewBox="0 0 137 28" fill="none" xmlns="http://www.w3.org/2000/svg">
<mask id="mask0_400_1486" style="mask-type:alpha" maskUnits="userSpaceOnUse" x="0" y="0" width="27" height="27">
<path d="M0 0H26.8206V26.8878H0V0Z" fill="#FEFEFE"/>
</mask>
<g mask="url(#mask0_400_1486)">
<path fill-rule="evenodd" clip-rule="evenodd" d="M9.42474 26.8878H-0.0672607L26.8206 0V9.51888L9.42474 26.8878Z" fill="#FEFEFE"/>
</g>
<path fill-rule="evenodd" clip-rule="evenodd" d="M53.7096 13.4434C53.7096 15.3082 53.3591 17.0565 52.6602 18.6872C51.9613 20.319 51.0026 21.7392 49.784 22.9488C48.5644 24.1595 47.1397 25.1182 45.509 25.8261C43.8772 26.5339 42.13 26.8878 40.2652 26.8878C39.0287 26.8878 37.8359 26.7266 36.689 26.404C35.541 26.0814 34.4714 25.629 33.4757 25.0466C32.4812 24.4642 31.5751 23.7653 30.7608 22.9488C29.9444 22.1334 29.2455 21.2285 28.6631 20.2328C28.0807 19.2382 27.6282 18.1675 27.3056 17.0195C26.982 15.8738 26.8207 14.681 26.8207 13.4434H33.5429C33.5429 14.3584 33.7221 15.223 34.0805 16.0384C34.4389 16.8549 34.9228 17.5672 35.5332 18.1765C36.1424 18.7858 36.8548 19.2696 37.6701 19.628C38.4866 19.9875 39.3512 20.1656 40.2652 20.1656C41.197 20.1656 42.0706 19.9875 42.8871 19.628C43.7024 19.2696 44.4148 18.7858 45.024 18.1765C45.6333 17.5672 46.1138 16.8549 46.4632 16.0384C46.8127 15.223 46.9874 14.3584 46.9874 13.4434H53.7096Z" fill="#FEFEFE"/>
<path fill-rule="evenodd" clip-rule="evenodd" d="M71.6956 10.3105L69.9137 6.47676L68.255 10.3105H71.6956ZM69.9014 4.4126L74.1417 13.4443H73.1449L72.0888 11.1707H67.8865L66.9032 13.4443H65.9075L69.9014 4.4126Z" fill="#FEFEFE"/>
<path fill-rule="evenodd" clip-rule="evenodd" d="M80.3656 10.3105L78.5836 6.47676L76.9238 10.3105H80.3656ZM78.5713 4.4126L82.8105 13.4443H81.8148L80.7587 11.1707H76.5553L75.572 13.4443H74.5774L78.5713 4.4126Z" fill="#FEFEFE"/>
<path fill-rule="evenodd" clip-rule="evenodd" d="M86.6209 8.95892C86.9244 8.95892 87.1943 8.91636 87.4317 8.83012C87.6692 8.74388 87.8663 8.6274 88.022 8.47956C88.1777 8.33284 88.2964 8.16036 88.3781 7.96324C88.4599 7.76724 88.5013 7.5578 88.5013 7.33716C88.5013 7.1154 88.4599 6.90484 88.3781 6.70436C88.2964 6.50388 88.1777 6.32916 88.022 6.18244C87.8663 6.0346 87.6692 5.917 87.4317 5.83188C87.1943 5.74564 86.9244 5.70196 86.6209 5.70196H84.6183V8.95892H86.6209ZM83.6965 4.8418H86.6825C87.1081 4.8418 87.4911 4.90788 87.8316 5.03892C88.1709 5.16996 88.4577 5.34804 88.6917 5.57316C88.9247 5.79828 89.105 6.06372 89.2327 6.36612C89.3593 6.66964 89.4231 6.99332 89.4231 7.33716C89.4231 7.65636 89.3693 7.95764 89.2629 8.23988C89.1565 8.52212 89.0009 8.773 88.7959 8.98916C88.5909 9.20644 88.3434 9.38676 88.0522 9.53012C87.7621 9.67348 87.4317 9.76644 87.0632 9.80676L89.5452 13.4445H88.4274L85.9701 9.81908H84.6183V13.4445H83.6965V4.8418Z" fill="#FEFEFE"/>
<path fill-rule="evenodd" clip-rule="evenodd" d="M90.9138 4.8418H91.8356V8.52884H96.3828V4.8418H97.3045V13.4445H96.3828V9.389H91.8356V13.4445H90.9138V4.8418Z" fill="#FEFEFE"/>
<path fill-rule="evenodd" clip-rule="evenodd" d="M99.1436 4.8418H100.078V10.3354C100.078 10.7946 100.144 11.1799 100.275 11.4901C100.406 11.8026 100.576 12.0512 100.784 12.2405C100.994 12.4287 101.231 12.5642 101.497 12.646C101.763 12.7277 102.032 12.768 102.302 12.768C102.572 12.768 102.841 12.7277 103.107 12.646C103.374 12.5642 103.611 12.4287 103.82 12.2405C104.029 12.0512 104.198 11.8026 104.33 11.4901C104.46 11.1799 104.526 10.7946 104.526 10.3354V4.8418H105.46V10.4709C105.46 10.9951 105.37 11.4543 105.19 11.8474C105.01 12.2405 104.77 12.5698 104.471 12.8364C104.172 13.1029 103.834 13.3012 103.457 13.4322C103.08 13.5632 102.695 13.6282 102.302 13.6282C101.909 13.6282 101.524 13.5632 101.147 13.4322C100.77 13.3012 100.433 13.1029 100.134 12.8364C99.8346 12.5698 99.5949 12.2405 99.4146 11.8474C99.2343 11.4543 99.1436 10.9951 99.1436 10.4709V4.8418Z" fill="#FEFEFE"/>
<path fill-rule="evenodd" clip-rule="evenodd" d="M107.698 10.9246C107.698 11.1878 107.741 11.432 107.827 11.656C107.913 11.8822 108.034 12.076 108.19 12.2406C108.345 12.4041 108.531 12.5329 108.749 12.627C108.966 12.7211 109.21 12.7681 109.48 12.7681C109.75 12.7681 109.997 12.7256 110.224 12.6393C110.448 12.5542 110.643 12.4332 110.807 12.2776C110.971 12.1219 111.097 11.9393 111.188 11.7299C111.278 11.5216 111.324 11.2942 111.324 11.0478C111.324 10.8193 111.274 10.6188 111.176 10.4464C111.077 10.2739 110.946 10.1249 110.783 9.99724C110.618 9.87068 110.429 9.75644 110.211 9.6534C109.994 9.55148 109.771 9.45516 109.542 9.36444C109.221 9.24236 108.914 9.11692 108.62 8.98924C108.325 8.86268 108.064 8.70924 107.839 8.52892C107.614 8.3486 107.432 8.13356 107.293 7.8838C107.153 7.63404 107.083 7.31708 107.083 6.9318C107.083 6.61148 107.143 6.31244 107.261 6.03468C107.38 5.7558 107.545 5.51388 107.753 5.30892C107.962 5.10508 108.213 4.94492 108.509 4.83068C108.804 4.71532 109.127 4.6582 109.48 4.6582C109.841 4.6582 110.17 4.7198 110.469 4.84188C110.768 4.96508 111.025 5.13308 111.237 5.347C111.45 5.55868 111.614 5.8118 111.729 6.10188C111.843 6.39308 111.9 6.71004 111.9 7.05388H110.955C110.955 6.58684 110.817 6.215 110.543 5.93612C110.269 5.65724 109.915 5.51836 109.48 5.51836C109.045 5.51836 108.692 5.64716 108.417 5.90588C108.143 6.16348 108.005 6.5062 108.005 6.9318C108.005 7.1614 108.059 7.35516 108.165 7.51532C108.272 7.67548 108.41 7.81436 108.583 7.93308C108.754 8.0518 108.954 8.1582 109.179 8.25228C109.404 8.34636 109.639 8.44268 109.885 8.54124C110.197 8.66444 110.494 8.791 110.776 8.92204C111.059 9.05308 111.309 9.211 111.526 9.3958C111.742 9.57948 111.917 9.80348 112.048 10.0644C112.179 10.3276 112.245 10.6547 112.245 11.0478C112.245 11.4331 112.174 11.7836 112.03 12.0984C111.886 12.4142 111.69 12.6875 111.44 12.916C111.19 13.1456 110.897 13.3214 110.561 13.4446C110.225 13.5678 109.865 13.6283 109.48 13.6283C109.095 13.6283 108.739 13.5611 108.41 13.4256C108.083 13.2912 107.798 13.103 107.556 12.8611C107.315 12.6192 107.125 12.3347 106.985 12.0065C106.846 11.6795 106.776 11.3188 106.776 10.9246H107.698Z" fill="#FEFEFE"/>
<path fill-rule="evenodd" clip-rule="evenodd" d="M66.743 18.2002H67.6771V23.6927C67.6771 24.1519 67.7432 24.5372 67.8731 24.8485C68.0053 25.1599 68.1744 25.4096 68.3838 25.5978C68.5922 25.786 68.8296 25.9215 69.0962 26.0032C69.3627 26.085 69.6315 26.1264 69.9014 26.1264C70.1714 26.1264 70.4402 26.085 70.7067 26.0032C70.9722 25.9215 71.2096 25.786 71.419 25.5978C71.6274 25.4096 71.7976 25.1599 71.9298 24.8485C72.0597 24.5372 72.1258 24.1519 72.1258 23.6927V18.2002H73.0598V23.8282C73.0598 24.3524 72.9691 24.8116 72.7888 25.2047C72.6085 25.5978 72.3688 25.9271 72.0698 26.1936C71.7707 26.4602 71.4336 26.6584 71.0562 26.7895C70.6798 26.9205 70.2946 26.9866 69.9014 26.9866C69.5083 26.9866 69.123 26.9205 68.7467 26.7895C68.3693 26.6584 68.0322 26.4602 67.732 26.1936C67.433 25.9271 67.1933 25.5978 67.013 25.2047C66.8338 24.8116 66.743 24.3524 66.743 23.8282V18.2002Z" fill="#FEFEFE"/>
<path fill-rule="evenodd" clip-rule="evenodd" d="M75.0165 17.8921L81.0253 24.7868V18.2001H81.947V27.1097L75.9382 20.2396V26.8017H75.0165V17.8921Z" fill="#FEFEFE"/>
<mask id="mask1_400_1486" style="mask-type:alpha" maskUnits="userSpaceOnUse" x="83" y="18" width="11" height="10">
<path d="M83.8818 18.2002H93.4886V27.1647H83.8818V18.2002Z" fill="#FEFEFE"/>
</mask>
<g mask="url(#mask1_400_1486)">
<path fill-rule="evenodd" clip-rule="evenodd" d="M83.981 26.8029H84.9027V18.2002H83.981V26.8029Z" fill="#FEFEFE"/>
<path fill-rule="evenodd" clip-rule="evenodd" d="M85.9924 18.2002H86.9993L89.8508 24.9706L92.5052 18.2002H93.4886L89.8632 27.2319L85.9924 18.2002Z" fill="#FEFEFE"/>
</g>
<path fill-rule="evenodd" clip-rule="evenodd" d="M94.5414 18.2002H99.7023V19.0604H95.4631V21.8872H99.3339V22.7474H95.4631V25.9416H99.7023V26.8018H94.5414V18.2002Z" fill="#FEFEFE"/>
<path fill-rule="evenodd" clip-rule="evenodd" d="M104.131 22.3162C104.434 22.3162 104.704 22.2736 104.942 22.1874C105.179 22.1023 105.376 21.9847 105.532 21.838C105.688 21.6901 105.806 21.5176 105.888 21.3216C105.97 21.1245 106.011 20.9151 106.011 20.6944C106.011 20.4727 105.97 20.2621 105.888 20.0616C105.806 19.8612 105.688 19.6864 105.532 19.5397C105.376 19.3919 105.179 19.2754 104.942 19.1892C104.704 19.1029 104.434 19.0604 104.131 19.0604H102.128V22.3162H104.131ZM101.207 18.2002H104.192C104.618 18.2002 105.002 18.2652 105.342 18.3962C105.682 18.5284 105.968 18.7053 106.202 18.9304C106.436 19.1567 106.616 19.421 106.743 19.7234C106.869 20.0269 106.933 20.3506 106.933 20.6944C106.933 21.0136 106.88 21.3149 106.773 21.5972C106.667 21.8805 106.511 22.1303 106.306 22.3476C106.102 22.5648 105.853 22.7452 105.563 22.8885C105.272 23.0319 104.942 23.1237 104.573 23.1652L107.056 26.8018H105.937L103.48 23.1764H102.128V26.8018H101.207V18.2002Z" fill="#FEFEFE"/>
<path fill-rule="evenodd" clip-rule="evenodd" d="M108.929 24.2827C108.929 24.5447 108.972 24.7889 109.058 25.014C109.144 25.2391 109.265 25.434 109.421 25.5975C109.576 25.7622 109.762 25.891 109.98 25.9851C110.197 26.0791 110.441 26.1262 110.711 26.1262C110.981 26.1262 111.228 26.0825 111.455 25.9963C111.68 25.9111 111.875 25.7902 112.038 25.6345C112.202 25.4788 112.328 25.2963 112.419 25.0868C112.508 24.8785 112.554 24.6511 112.554 24.4059C112.554 24.1763 112.505 23.9758 112.407 23.8033C112.308 23.6308 112.177 23.4819 112.013 23.3553C111.85 23.2276 111.66 23.1134 111.442 23.0115C111.225 22.9084 111.002 22.8121 110.772 22.7225C110.452 22.5993 110.145 22.4739 109.851 22.3473C109.556 22.2196 109.295 22.0662 109.07 21.887C108.845 21.7055 108.662 21.4916 108.524 21.2407C108.384 20.991 108.314 20.674 108.314 20.2887C108.314 19.9695 108.375 19.6705 108.492 19.3916C108.611 19.1127 108.776 18.8719 108.984 18.667C109.193 18.462 109.445 18.3019 109.74 18.1876C110.034 18.0723 110.358 18.0151 110.711 18.0151C111.072 18.0151 111.401 18.0767 111.7 18.1999C111.999 18.3231 112.255 18.49 112.468 18.7039C112.681 18.9167 112.844 19.1687 112.96 19.4599C113.074 19.75 113.132 20.0681 113.132 20.4119H112.186C112.186 19.9449 112.048 19.5719 111.774 19.2931C111.499 19.0153 111.145 18.8753 110.711 18.8753C110.276 18.8753 109.922 19.0041 109.648 19.2628C109.374 19.5204 109.236 19.8631 109.236 20.2887C109.236 20.5183 109.29 20.7132 109.396 20.8723C109.502 21.0324 109.641 21.1713 109.814 21.29C109.985 21.4087 110.184 21.5163 110.41 21.6092C110.635 21.7033 110.87 21.7996 111.116 21.8982C111.428 22.0214 111.724 22.1479 112.008 22.2801C112.29 22.41 112.54 22.5679 112.757 22.7527C112.973 22.9375 113.148 23.1604 113.279 23.4225C113.41 23.6846 113.476 24.0116 113.476 24.4059C113.476 24.79 113.404 25.1406 113.261 25.4564C113.117 25.7711 112.921 26.0444 112.671 26.274C112.421 26.5025 112.129 26.6783 111.792 26.8015C111.456 26.9247 111.096 26.9863 110.711 26.9863C110.326 26.9863 109.969 26.918 109.641 26.7836C109.314 26.6481 109.03 26.4599 108.788 26.218C108.546 25.9761 108.356 25.6916 108.216 25.3646C108.077 25.0364 108.007 24.6758 108.007 24.2827H108.929Z" fill="#FEFEFE"/>
<path fill-rule="evenodd" clip-rule="evenodd" d="M115.073 26.8029H115.995V18.2002H115.073V26.8029Z" fill="#FEFEFE"/>
<path fill-rule="evenodd" clip-rule="evenodd" d="M119.604 19.0604H117.085V18.2002H123.044V19.0604H120.525V26.8018H119.604V19.0604Z" fill="#FEFEFE"/>
<path fill-rule="evenodd" clip-rule="evenodd" d="M126.622 22.7832L123.673 18.2002H124.753L127.089 21.9354L129.424 18.2002H130.505L127.543 22.8079V26.8018H126.622V22.7832Z" fill="#FEFEFE"/>
</svg>
