<svg width="45" height="45" viewBox="0 0 45 45" fill="none" xmlns="http://www.w3.org/2000/svg">
<g clip-path="url(#clip0_400_1492)">
<path fill-rule="evenodd" clip-rule="evenodd" d="M38.1341 29.5628L38.0752 29.7126C35.9054 35.5789 29.2315 40.0095 22.5465 40.0216H22.5281H22.5145H22.4949C15.8124 40.0095 9.13978 35.5789 6.96856 29.7126L6.91215 29.5628C6.82137 29.5628 6.21931 29.5591 5.95488 29.5628H5.93652V29.5431V23.9111V23.8928H5.95445H6.04888H6.14942H6.16613L6.16674 23.9099C6.58392 27.4212 8.39846 30.7288 11.2775 33.2226C14.1041 35.6697 17.7 37.1671 21.405 37.4444L21.6455 37.464V30.0439V30.0317L21.6567 30.0267C22.2507 29.7469 22.8276 29.4586 23.3663 29.1663L23.3945 29.1505V29.1799V37.464L23.64 37.4444C27.3464 37.1671 30.9422 35.6697 33.7674 33.2226C36.6491 30.7288 38.4606 27.4225 38.8755 23.9099L38.8778 23.8928H38.8951H38.9957H39.0865H39.1061V23.9111V29.5431V29.5628H39.0865C38.8239 29.5591 38.225 29.5628 38.1341 29.5628ZM14.0108 31.9952C13.9667 32.0002 13.9372 31.9831 13.9285 31.9781L13.9188 31.9707L13.9223 31.9609C13.9543 31.7547 14.4403 31.3153 14.7619 31.0233C15.2921 30.5434 15.7143 30.1666 15.7143 29.8009C15.7143 29.7689 15.7093 29.7348 15.702 29.7026C15.659 29.5064 15.6358 29.3075 15.6358 29.1185C15.6358 28.7701 15.7081 28.5049 15.7682 28.3455C16.6899 25.9104 20.6809 24.6317 22.6618 24.2929L22.771 24.2758L22.8238 24.1799C23.3393 23.2424 24.1506 22.5711 24.9948 22.3808L25.0268 22.3735L25.017 22.404L24.8747 22.7956H24.8771C24.8157 22.9158 24.7594 23.1307 24.7594 23.3306C24.7594 23.424 24.7739 23.5026 24.7985 23.57C24.8649 23.7382 25.0097 23.8351 25.1986 23.8351H25.2084L25.4489 23.8143C28.2767 23.478 31.3546 24.1211 33.8853 25.5766L34.0571 25.6748L34.1799 25.5202C34.5702 25.0182 35.4218 24.9151 35.8637 24.9347L35.9054 24.936L35.8759 24.9642C35.6231 25.2232 35.4316 25.4907 35.326 25.7386C35.174 26.0823 34.7812 26.1411 34.7665 26.1437L34.4204 26.1928C34.4646 26.2664 34.602 26.4872 34.602 26.4872C34.651 26.5707 34.7836 26.8334 34.7836 27.0519C34.7836 27.1033 34.7763 27.1499 34.764 27.1893C34.6708 27.4494 34.6045 27.7427 34.5725 28.0644L34.5702 28.0962L34.543 28.0778C34.175 27.7918 33.7356 27.3364 33.7356 26.8088V26.756L33.7477 26.5841L33.581 26.5303C29.9678 25.3262 26.6836 26.7547 23.6757 28.4754C21.3169 29.8255 17.371 31.5558 14.0108 31.9952ZM21.1818 21.2714C20.3238 21.583 19.4967 21.9636 18.721 22.3993C17.8546 22.8876 13.3406 25.3496 9.68213 25.827C9.63792 25.8344 9.61102 25.8171 9.59866 25.811L9.58883 25.8037L9.59135 25.7926C9.62573 25.5827 10.1117 25.1471 10.4321 24.8549C10.9635 24.3787 11.3833 23.9983 11.3833 23.6326C11.3833 23.6007 11.3783 23.5664 11.3721 23.5321C11.3279 23.3381 11.3059 23.1417 11.3059 22.9502C11.3059 22.6042 11.3783 22.3391 11.4384 22.1771C12.3639 19.7348 15.508 18.9186 17.5883 18.3799L18.0633 18.2547C18.0755 18.2326 18.1098 18.1663 18.1098 18.1663L18.1566 18.0768L18.1626 18.0633C18.4437 17.3255 19.1311 16.6102 19.8023 16.3635L19.833 16.35L19.8257 16.3844C19.7324 16.7525 19.6882 17.0447 19.6882 17.2777C19.6882 17.4926 19.7274 17.6497 19.8035 17.7454C19.8821 17.8424 19.9949 17.8914 20.1226 17.8804L20.4171 17.8621L20.719 17.8264C20.8565 17.8091 21.0185 17.7895 21.1731 17.776L21.194 17.7749V17.7957V21.2542V21.2664L21.1818 21.2714ZM21.6468 19.5581V8.37751V8.36036H21.6653H22.5097H23.3797H23.3983V8.38003V22.7343V22.7416V22.7428L23.3922 22.7466C23.0399 23.0583 22.7355 23.4325 22.485 23.8585L22.4827 23.8659L22.4754 23.8682C22.3365 23.8928 22.0506 23.9505 21.674 24.0438L21.6468 24.0633V24.05V24.0278V19.5581ZM21.1927 7.90627V8.76406V8.82559L21.1596 8.77267C20.9988 8.51869 20.9142 8.22284 20.9142 7.91863C20.9142 7.03482 21.6321 6.32056 22.5145 6.32056C23.397 6.32056 24.1162 7.03482 24.1162 7.91863C24.1162 8.21065 24.0377 8.49667 23.8854 8.74447L23.8523 8.79974V8.73594V7.9088L21.1927 7.90627ZM21.194 13.9284V13.9469H21.1757H14.6122H12.4263H12.4079V13.9284V12.7896V12.7699H12.4263H15.1177H21.1757H21.194V12.7896V13.9101V13.9284ZM21.194 9.49929V10.6333V10.6604L21.1658 10.6493C20.6626 10.3976 20.2355 10.0123 19.9361 9.53132C19.6317 9.0452 19.4722 8.48918 19.4722 7.92098C19.4722 6.24214 20.8394 4.87613 22.5171 4.87613C24.1972 4.87613 25.5644 6.24214 25.5644 7.92098C25.5644 8.48553 25.4049 9.04032 25.1029 9.52514C24.8034 10.0049 24.3813 10.3928 23.8781 10.6431L23.8523 10.6579V10.6284V9.48458V9.47596L23.8572 9.46978C24.31 9.07958 24.5678 8.51503 24.5678 7.91863C24.5678 6.78702 23.6461 5.86665 22.5145 5.86665C21.383 5.86665 20.4613 6.78702 20.4613 7.91863C20.4613 8.52487 20.7265 9.09429 21.1879 9.4858L21.194 9.49076V9.49929ZM23.8683 12.7699H29.9088H32.5918H32.6114V12.7896V13.9284V13.9469H32.5918L30.282 13.9458L23.8683 13.9469H23.8523V13.9284V13.9248V12.7908V12.7896V12.7699H23.8683ZM23.8708 17.889C25.5104 18.0927 27.0592 18.6093 28.6055 19.4673L28.7994 19.5777L28.9124 19.3814C29.2216 18.8388 30.0709 18.6302 30.5251 18.5958L30.5643 18.5909L30.5398 18.6252C30.314 18.9149 30.1544 19.212 30.0784 19.4807C29.9752 19.8415 29.6757 19.9349 29.6636 19.9385L29.3491 20.0342C29.3983 20.0981 29.5457 20.2969 29.5457 20.2969C29.5506 20.3043 29.7199 20.5313 29.7199 20.7805C29.7199 20.8172 29.7151 20.8503 29.7102 20.8847C29.6708 21.0787 29.6512 21.2897 29.6512 21.5095C29.6512 21.5855 29.6537 21.6664 29.6585 21.7537L29.661 21.788L29.6315 21.7709C29.2193 21.5314 28.7184 21.1314 28.6669 20.5902L28.6546 20.4245L28.4878 20.3889C27.8471 20.2539 26.0307 20.179 23.8708 20.5521L23.8523 20.557V20.535V17.9086V17.8864L23.8708 17.889ZM39.5553 30.0181L39.5602 23.4388L38.4728 23.4413L38.4532 23.6449C38.1022 27.123 36.33 30.4023 33.4705 32.8789C30.7974 35.196 27.3856 36.6467 23.8708 36.9682H23.8511V36.9485L23.8461 28.9111V28.9L23.8572 28.8952L23.8756 28.8828L23.899 28.8682C26.7646 27.2309 29.8844 25.8601 33.279 26.9132L33.2888 26.9169L33.2913 26.9291C33.3821 27.9784 34.6094 28.6778 34.661 28.7086L35.007 28.9026L34.9996 28.5049V28.4926C34.9996 28.3895 35.0096 27.8458 35.1887 27.3415C35.2206 27.2531 35.2377 27.1562 35.2377 27.0519C35.2377 26.8875 35.1985 26.7105 35.1249 26.5241L35.1176 26.5081L35.1346 26.5008C35.4218 26.3767 35.6255 26.1791 35.7409 25.9154C35.952 25.4269 36.519 24.9973 36.5239 24.9937L36.811 24.7814L36.497 24.612C35.9937 24.3444 34.6315 24.4524 33.9614 25.0893L33.9539 25.0992L33.9394 25.0906C31.3571 23.6571 28.2447 23.0264 25.4024 23.3614L25.2329 23.3773L25.2158 23.3784L25.2133 23.3601V23.3552C25.2109 23.3515 25.2109 23.3467 25.2109 23.3405C25.2109 23.2669 25.2329 23.1589 25.2551 23.0828L25.3017 22.9492L25.6871 21.8715L25.3582 21.8777C24.8918 21.8899 24.3689 22.0653 23.8806 22.3783L23.8523 22.3955V22.3636V21.0308V21.0161L23.8657 21.0135C25.6798 20.6908 27.4028 20.6798 28.2325 20.805L28.2447 20.8063L28.2472 20.8185C28.4828 21.8457 29.8033 22.3686 29.8622 22.3906L30.2574 22.5428C30.2354 22.441 30.1643 22.128 30.1643 22.128C30.1643 22.128 30.1027 21.8628 30.1027 21.5082C30.1027 21.318 30.1224 21.1387 30.1544 20.9742C30.1666 20.9129 30.1741 20.849 30.1741 20.7854C30.1741 20.6159 30.1299 20.4417 30.0489 20.2651L30.0438 20.2514L30.0562 20.2429C30.2845 20.0895 30.4391 19.8746 30.5152 19.6059C30.6648 19.0745 31.1827 18.5763 31.1902 18.5713L31.4578 18.3196C31.372 18.2891 31.1115 18.1933 31.1115 18.1933C30.6305 18.0191 29.261 18.2252 28.6546 18.9664L28.6448 18.9762L28.6325 18.969C27.074 18.1321 25.5127 17.6288 23.8657 17.4312L23.8523 17.4299V17.4152V14.4133V14.3962H23.8683L33.063 14.3999V12.3171L23.8683 12.3197H23.8523V12.3013V11.166V11.1537L23.862 11.1512C24.4991 10.8849 25.0392 10.4393 25.4245 9.8626C25.8122 9.28334 26.0159 8.61069 26.0159 7.92098C26.0159 5.99181 24.4475 4.42334 22.5171 4.42334C20.5891 4.42334 19.0193 5.99181 19.0193 7.92098C19.0193 8.61321 19.2242 9.287 19.6121 9.86756C19.9999 10.4468 20.5436 10.8899 21.1818 11.1537L21.194 11.1573V11.1696V12.3V12.3184H21.1757L11.955 12.3171V14.3999L21.1757 14.401H21.194V14.4182V17.3035V17.3195L21.1769 17.3219C21.0063 17.3343 20.8368 17.3563 20.6626 17.3759L20.3755 17.4103H20.3657L20.1644 17.4238L20.1472 17.425L20.1448 17.409C20.1397 17.3808 20.1374 17.3464 20.1374 17.3121C20.1374 17.0519 20.233 16.5611 20.3705 16.1155L20.4686 15.7953L20.1337 15.8223C19.2415 15.8996 18.1737 16.8114 17.7564 17.8595L17.7539 17.8668L17.7442 17.8693L17.4742 17.9405C15.3019 18.5027 12.0238 19.3543 11.015 22.0174C10.9389 22.2139 10.8518 22.5355 10.8518 22.9528C10.8518 23.1749 10.8776 23.4019 10.9291 23.6277V23.6301V23.6326C10.9291 23.7847 10.5167 24.1701 10.1288 24.5199C9.61102 24.9851 9.16546 25.3876 9.13474 25.7706C9.13474 25.7827 9.1336 25.7951 9.1336 25.8073C9.1336 25.9301 9.18383 26.0455 9.27713 26.1338C9.3949 26.2455 9.56916 26.3007 9.74106 26.2787C13.4831 25.7876 18.0633 23.2913 18.9444 22.7956C19.6341 22.4053 20.405 22.0469 21.1684 21.7598L21.1927 21.75V21.7757V24.1579V24.1701L21.1792 24.1739C19.3788 24.6746 16.2236 25.8626 15.3436 28.1846C15.2724 28.3809 15.1816 28.7013 15.1816 29.1185C15.1816 29.3419 15.2085 29.5677 15.2577 29.796L15.2602 29.7997C15.2577 29.9519 14.8454 30.3384 14.4575 30.687C13.9409 31.1533 13.4953 31.5558 13.4658 31.9388C13.4647 31.951 13.4634 31.9633 13.4634 31.9732C13.4634 32.0984 13.515 32.2138 13.6058 32.2996C13.726 32.415 13.8992 32.4666 14.0697 32.4469C17.2127 32.0371 19.752 30.8883 21.1192 30.2747L21.1658 30.2525L21.1915 30.2403V30.2685L21.1953 36.9485V36.9682H21.1757C17.6607 36.6467 14.2512 35.196 11.5746 32.8789C8.71511 30.4023 6.9441 27.123 6.59071 23.6449L6.56982 23.4413L5.48364 23.4388V30.0317C5.6082 30.0317 6.37398 30.0267 6.58941 30.0256H6.60229L6.60655 30.039C7.71919 32.9231 9.9423 35.5667 12.8682 37.4886C15.7977 39.4081 19.2242 40.4684 22.5145 40.4733H22.5195H22.5206L22.5318 40.4757C25.8221 40.4733 29.2486 39.4105 32.1744 37.4862C35.1003 35.5642 37.3267 32.9157 38.4386 30.0317L38.441 30.0181H38.4532H39.5553Z" fill="#FEFEFE"/>
<path fill-rule="evenodd" clip-rule="evenodd" d="M12.6396 23.0388C12.5096 23.0463 12.4519 23.1664 12.3943 23.2806C12.3599 23.3554 12.3158 23.4389 12.2568 23.5114C12.2568 23.5114 12.3783 23.6132 12.4287 23.6548C12.4359 23.6856 12.4482 23.7311 12.4482 23.7311C12.922 23.6256 12.9662 23.5175 12.9857 23.4757C13.0066 23.4278 13.0029 23.3726 12.9735 23.3261C12.8605 23.1443 12.7673 23.0326 12.6396 23.0388Z" fill="#FEFEFE"/>
<path fill-rule="evenodd" clip-rule="evenodd" d="M16.9634 29.2165C16.8334 29.2226 16.7745 29.3429 16.7181 29.4583C16.6824 29.533 16.6419 29.6178 16.5806 29.6902C16.5806 29.6902 16.7021 29.7908 16.7536 29.8338C16.7598 29.8633 16.7696 29.9087 16.7696 29.9087C17.2457 29.8043 17.2923 29.6951 17.3096 29.6545C17.3292 29.6041 17.3256 29.5478 17.2948 29.5025C17.1845 29.322 17.0911 29.2115 16.9634 29.2165Z" fill="#FEFEFE"/>
<path fill-rule="evenodd" clip-rule="evenodd" d="M1.21582 24.0535C1.21582 24.2328 1.36187 24.3786 1.54048 24.3786C1.72031 24.3786 1.86627 24.2328 1.86627 24.0535C1.86627 23.8743 1.72031 23.7295 1.54048 23.7295C1.36187 23.7295 1.21582 23.8743 1.21582 24.0535Z" fill="#FEFEFE"/>
<path fill-rule="evenodd" clip-rule="evenodd" d="M43.8065 24.0546C43.8065 23.8755 43.6593 23.7295 43.4801 23.7295C43.3008 23.7295 43.156 23.8755 43.156 24.0546C43.156 24.2327 43.3008 24.3786 43.4801 24.3786C43.6593 24.3786 43.8065 24.2327 43.8065 24.0546Z" fill="#FEFEFE"/>
<path fill-rule="evenodd" clip-rule="evenodd" d="M1.67718 22.0885C1.67718 22.0885 1.87163 21.7559 1.87163 21.7546L1.87598 21.751C1.99505 21.5338 2.11839 21.3091 2.38047 21.3202C2.59572 21.33 2.84178 21.4969 2.82281 21.9388C2.80505 22.3278 2.64855 22.4395 2.50929 22.5352L2.50198 22.5426L2.44732 22.5806L2.51294 22.5917C2.79591 22.6357 2.84805 22.6505 3.0076 22.7095L3.03084 22.7193L3.04198 22.696C3.11431 22.5352 3.14321 22.4591 3.17506 22.2382C3.18742 22.1499 3.19595 22.0614 3.19961 21.9707C3.2205 21.4601 3.04302 21.1902 2.93701 21.0748C2.77685 20.9029 2.55046 20.8022 2.29456 20.7912C1.82019 20.7728 1.63366 21.1115 1.45192 21.443L1.44957 21.4478L1.34573 21.6393C1.24215 21.8235 1.12186 22.0321 0.854908 22.0211C0.632171 22.0099 0.400817 21.8307 0.418573 21.4552C0.432761 21.1017 0.629125 20.9458 0.721214 20.871L0.775701 20.8292L0.707635 20.8244C0.472626 20.8048 0.408738 20.7974 0.195227 20.7323L0.166417 20.7236L0.160933 20.7531C0.152838 20.8022 0.146223 20.8244 0.127161 20.9127L0.102616 21.0244C0.0823353 21.1079 0.038728 21.281 0.0332444 21.411C0.0184475 21.7559 0.113061 22.0565 0.300198 22.2603C0.457829 22.4296 0.670208 22.5253 0.918796 22.5352C1.37036 22.5548 1.55576 22.2737 1.67718 22.0885Z" fill="#FEFEFE"/>
<path fill-rule="evenodd" clip-rule="evenodd" d="M0.712619 18.6107C0.745172 18.4353 0.858586 18.1234 1.25932 17.9971C1.52932 17.9136 1.86016 17.9455 2.09021 17.9873C2.42775 18.0486 2.69097 18.1518 2.86957 18.2954C2.97446 18.3799 3.05906 18.4831 3.11503 18.591C3.17935 18.731 3.19963 18.8904 3.17143 19.0512C3.1065 19.4108 2.84381 19.5729 2.69157 19.6342C2.47371 19.7251 2.17377 19.735 1.7988 19.6685C1.21702 19.5644 0.861198 19.3397 0.738993 18.9985C0.697213 18.8759 0.688683 18.7432 0.712619 18.6107ZM1.69444 20.1987C2.19762 20.292 2.61733 20.2307 2.9419 20.0221C3.11128 19.914 3.25003 19.7619 3.3476 19.5839C3.42306 19.4464 3.47642 19.2907 3.50645 19.1224C3.58627 18.6819 3.5034 18.3088 3.25856 18.0168C3.02233 17.7308 2.65415 17.5405 2.16628 17.4497C1.69444 17.3662 1.3011 17.4104 0.998548 17.5798C0.673973 17.7676 0.450018 18.1087 0.372639 18.5444C0.297174 18.9579 0.378209 19.3298 0.60643 19.622C0.835346 19.9166 1.20039 20.1105 1.69444 20.1987Z" fill="#FEFEFE"/>
<path fill-rule="evenodd" clip-rule="evenodd" d="M1.35681 16.3917C1.54586 16.4408 1.73918 16.4998 2.00422 16.5857L2.74798 16.8311C3.03696 16.9244 3.42046 17.0569 3.60324 17.1526C3.715 17.2066 3.76235 17.2521 3.82859 17.3146L3.86167 17.3466L3.87385 17.3024C3.942 17.0397 3.96916 16.9416 4.12931 16.4531C4.28077 15.994 4.31584 15.9033 4.41342 15.6627L4.42325 15.6369L4.39862 15.6271C4.19486 15.5388 4.13236 15.5081 3.91937 15.3915L3.84635 15.3511L3.88264 15.4271C3.94757 15.5658 4.00885 15.6946 3.85801 16.1536C3.78733 16.3695 3.72545 16.485 3.66043 16.6053C3.36405 16.5293 3.14314 16.4678 2.57921 16.2837C1.36473 15.8861 1.23286 15.7634 1.15435 15.6898L1.14574 15.6824L1.11014 15.6493L1.10091 15.6971C1.08194 15.7928 1.06296 15.8983 1.02545 16.0088C0.992893 16.1094 0.923 16.2666 0.905156 16.2948L0.878174 16.3377L0.929093 16.3353C1.04686 16.3328 1.12485 16.3328 1.35681 16.3917Z" fill="#FEFEFE"/>
<path fill-rule="evenodd" clip-rule="evenodd" d="M2.07662 14.0205C2.19874 14.0549 2.26376 14.0794 2.87122 14.3249L3.16881 14.455C3.50627 14.6011 3.78732 14.7249 4.13914 14.8968C4.4544 15.0515 4.51211 15.1129 4.58339 15.1901L4.6183 15.2269L4.62996 15.179C4.66182 15.0564 4.69132 14.9605 4.72823 14.8772C4.77288 14.773 4.83442 14.6735 4.88099 14.6011L4.90788 14.5581H4.85766C4.68889 14.5617 4.63127 14.5508 4.33846 14.4378C3.98812 14.298 3.72839 14.1899 3.34864 14.0255L3.05174 13.8978C2.30241 13.5591 2.22755 13.5247 2.04781 13.3357L2.01517 13.3013L2.00299 13.3478C1.96983 13.4609 1.94102 13.5541 1.90045 13.6473C1.85937 13.7432 1.80471 13.8366 1.75066 13.926L1.72803 13.9664L1.77407 13.969C1.8538 13.969 1.90663 13.969 2.07662 14.0205Z" fill="#FEFEFE"/>
<path fill-rule="evenodd" clip-rule="evenodd" d="M3.10809 11.9879L3.12472 11.9499C3.16876 11.8456 3.2363 11.6897 3.3149 11.556C3.44859 11.3276 3.62798 11.1657 3.8334 11.0895C4.20898 10.9545 4.57107 11.1215 4.84525 11.281C5.32032 11.5632 5.55889 11.8653 5.57125 12.2113C5.58152 12.4862 5.41414 12.7931 5.36323 12.8814C5.16564 13.2139 5.06677 13.1589 4.93133 13.0828L3.88623 12.4691C3.61432 12.3095 3.27321 12.0959 3.10809 11.9879ZM3.71381 12.9157C3.71381 12.9145 4.16415 13.1784 4.16415 13.1784L4.31082 13.2692L4.62443 13.4656C5.07164 13.7466 5.10672 13.8338 5.12639 13.8803L5.1478 13.9344L5.17548 13.8829C5.19089 13.8534 5.20499 13.8239 5.22083 13.7932C5.25025 13.7331 5.28402 13.6644 5.34173 13.5661C5.37802 13.5048 5.41963 13.441 5.46689 13.3673C5.52521 13.2777 5.59206 13.1759 5.66273 13.0556C5.86206 12.7169 6.07391 12.2654 5.93822 11.7817C5.80496 11.3069 5.41414 10.9938 5.10907 10.8159C5.01463 10.7582 4.68083 10.5717 4.35443 10.5153C3.68308 10.4059 3.32787 10.8515 3.09208 11.2503C3.01174 11.3866 2.95473 11.5032 2.90067 11.6161C2.85089 11.7192 2.80371 11.8174 2.74113 11.9217C2.66688 12.0493 2.52701 12.2371 2.48767 12.28L2.45459 12.3132L2.50124 12.3243C2.75592 12.3856 2.84175 12.4078 3.71381 12.9157Z" fill="#FEFEFE"/>
<path fill-rule="evenodd" clip-rule="evenodd" d="M5.03366 9.8086C5.03235 9.8086 5.8676 10.4908 5.8676 10.4908L5.87369 10.496C6.17937 10.7291 6.52414 10.9917 6.9402 10.848C7.1544 10.7781 7.3828 10.5671 7.5238 10.3928C7.66864 10.2161 7.86318 9.9436 7.87493 9.64906C7.89077 9.21699 7.61772 8.96918 7.37531 8.75062L7.37166 8.74827L6.4942 8.02897C6.10139 7.70013 6.01234 7.5996 5.90807 7.43257L5.88674 7.39453L5.86394 7.43257L5.85219 7.44858C5.80876 7.51848 5.76506 7.58976 5.71484 7.65339C5.66018 7.7198 5.60116 7.77751 5.52831 7.84009L5.49027 7.87195L5.53876 7.88666C5.61849 7.90999 5.66566 7.93088 5.75349 7.99215C5.81607 8.03149 6.03262 8.20323 6.22107 8.35555L6.9274 8.9348C7.29367 9.23422 7.67047 9.54356 7.25807 10.0466C7.0053 10.3559 6.75498 10.437 6.47009 10.3069C6.34623 10.2503 6.22229 10.1498 6.04995 10.0098L5.3417 9.43059C5.20173 9.31526 5.01103 9.15928 4.88578 9.00974C4.8023 8.91278 4.7876 8.87222 4.77663 8.82182L4.76113 8.76046L4.72693 8.81329L4.71883 8.8267C4.66243 8.91382 4.60472 9.00356 4.53596 9.08704C4.47207 9.16546 4.3973 9.23788 4.32428 9.30794L4.31697 9.31526L4.27832 9.35199L4.32985 9.36182C4.45815 9.38646 4.51699 9.3962 5.03366 9.8086Z" fill="#FEFEFE"/>
<path fill-rule="evenodd" clip-rule="evenodd" d="M7.24218 7.18965L7.52645 7.53093L7.64666 7.68177C8.0124 8.1397 8.27553 8.47097 8.39599 8.66002C8.50026 8.81591 8.53569 8.90539 8.57024 8.99382L8.57877 9.0135L8.59723 9.05771L8.62412 9.01837C8.67582 8.95222 8.73841 8.88711 8.80334 8.83176C8.87706 8.76804 8.96036 8.71277 9.03896 8.66124L9.07334 8.63905L9.04148 8.61581C8.85739 8.49186 8.78863 8.42554 8.5235 8.10531L8.1602 7.67194C7.96157 7.43266 7.78853 7.22525 7.59626 7.00312C7.52767 6.92339 7.46744 6.85828 7.41104 6.79823C7.61959 6.92705 7.75963 7.00808 8.00622 7.1456L9.64406 8.09304L9.6613 8.10166L9.67479 8.0893L9.83912 7.94829L9.8527 7.93593L9.84652 7.91748L9.17779 6.02504L9.01459 5.55981C8.99109 5.49235 8.9715 5.43726 8.95557 5.39052C9.05863 5.52439 9.20103 5.69359 9.38521 5.90719L9.91276 6.51717C10.373 7.04986 10.4761 7.23639 10.4897 7.35172L10.497 7.41299L10.5388 7.36643C10.6221 7.26589 10.6934 7.18965 10.7645 7.12959C10.8504 7.05587 10.9462 6.99328 11.0271 6.94306L11.0714 6.91486L11.0224 6.89528L11.01 6.88901C10.9498 6.86446 10.8995 6.8461 10.7952 6.74539C10.5657 6.54415 10.254 6.19077 9.37276 5.1549C9.11024 4.84321 9.08317 4.77314 9.01198 4.58539L8.99727 4.54248L8.96785 4.57556C8.85739 4.69715 8.76896 4.78663 8.67948 4.86392C8.56041 4.9648 8.50148 5.00023 8.42541 5.04314L8.40321 5.05663L8.41557 5.08013C8.53212 5.29477 8.56285 5.37955 8.65615 5.63353L8.65737 5.64102C8.65737 5.63971 8.96419 6.53066 8.96419 6.53066L9.02442 6.70857C9.09301 6.91364 9.17779 7.16031 9.26492 7.34684C9.1052 7.23639 8.96289 7.14682 8.71256 7.01548C8.71508 7.01661 7.91048 6.54903 7.91048 6.54903C7.62516 6.38217 7.51279 6.31341 7.23617 6.10234L7.2165 6.08763L7.20049 6.10477L7.16741 6.13785C7.08403 6.22506 7.00543 6.30618 6.92135 6.3773C6.82438 6.46312 6.72498 6.53432 6.61697 6.61039L6.60347 6.62023L6.54028 6.66436L6.61697 6.66801C6.68825 6.67306 6.81646 6.67915 7.24218 7.18965Z" fill="#FEFEFE"/>
<path fill-rule="evenodd" clip-rule="evenodd" d="M12.3184 4.33508C12.2729 4.24665 12.1084 3.93991 12.1084 3.93991C11.9232 3.58879 11.8691 3.47111 11.7955 3.31148L11.7723 3.26117C11.8446 3.21095 11.9012 3.17657 11.9943 3.12739C12.0986 3.07099 12.316 2.95313 12.5294 3.01702C12.6595 3.05628 12.7699 3.1582 12.8584 3.32262C12.9627 3.51533 12.9835 3.70926 12.9196 3.86619C12.8682 4.00128 12.7492 4.11661 12.571 4.21244C12.5294 4.23446 12.4767 4.25901 12.4164 4.28851L12.3184 4.33508ZM11.6434 4.07979L12.0962 4.92286C12.3871 5.46417 12.5271 5.80528 12.5146 5.93793V5.94394L12.5098 5.99816L12.5565 5.96979L12.5663 5.96248C12.6546 5.90477 12.7454 5.84819 12.8412 5.79545C12.9369 5.74653 13.035 5.70101 13.1332 5.6594L13.186 5.63721L13.1332 5.61022C13.1307 5.60901 13.1272 5.6077 13.1234 5.60648C13.0743 5.58315 12.9627 5.53293 12.5393 4.74504L12.4852 4.64433L12.5688 4.60255C12.6411 4.56835 12.6976 4.53884 12.759 4.50681C12.9835 4.38426 13.2977 4.18406 13.4057 3.83929C13.5002 3.53004 13.3959 3.23053 13.2891 3.03295C13.1554 2.78497 12.991 2.62917 12.7994 2.57024C12.5074 2.4832 12.2042 2.62429 11.9452 2.76417C11.9108 2.78253 11.82 2.83284 11.7316 2.88324C11.6495 2.92981 11.571 2.97402 11.5427 2.99004C11.3807 3.07595 11.2605 3.12608 11.1463 3.17657L11.0812 3.20346L11.0383 3.22183L11.0763 3.2502C11.2446 3.37284 11.4776 3.76931 11.6434 4.07979Z" fill="#FEFEFE"/>
<path fill-rule="evenodd" clip-rule="evenodd" d="M14.028 2.77638L14.0403 2.8058L14.4318 3.81834C14.5263 4.06501 14.6318 4.34737 14.6785 4.58282C14.6981 4.67378 14.7007 4.7327 14.703 4.83071V4.87493L14.7423 4.85404C14.9386 4.75237 15.1031 4.68849 15.459 4.54983L15.4933 4.53625C15.8308 4.40613 16.0542 4.3324 16.2027 4.28462C16.2543 4.26625 16.2935 4.25407 16.3279 4.24162L16.3501 4.23439L16.3451 4.20985C16.2911 3.99381 16.28 3.93489 16.269 3.67716L16.2642 3.58272L16.2174 3.66489C16.1488 3.78518 16.0923 3.88815 15.8246 4.0282C15.7118 4.08956 15.621 4.12394 15.5781 4.14109C15.1497 4.30803 15.1253 4.28349 15.0049 3.98032C15.0049 3.98032 14.784 3.40716 14.7349 3.282C15.0466 3.15187 15.2159 3.08798 15.4222 3.03167C15.551 2.99729 15.5978 3.00216 15.7191 3.02671L15.7806 3.03889L15.7486 2.98736C15.6994 2.90642 15.67 2.85236 15.6309 2.75053C15.5841 2.63389 15.5671 2.56765 15.5474 2.4646L15.5302 2.39105L15.4959 2.4585L15.4933 2.4646C15.4615 2.52344 15.4418 2.56026 15.378 2.60821C15.3154 2.65356 15.1988 2.70761 15.049 2.76524C14.8491 2.84383 14.7289 2.88065 14.595 2.91869L14.4354 2.50638C14.3816 2.37138 14.325 2.21183 14.2771 2.06821C14.411 2.00807 14.4956 1.97125 14.6391 1.91729C15.0908 1.74051 15.1595 1.76018 15.3278 1.85096L15.4051 1.89274L15.3658 1.81536C15.3265 1.74051 15.3007 1.6828 15.2774 1.62274C15.2552 1.56503 15.238 1.51229 15.221 1.4558C15.2086 1.4202 15.1964 1.38338 15.1841 1.34525L15.1742 1.31836L15.1473 1.32941C14.8921 1.44109 14.5618 1.5834 14.2636 1.69881C13.8734 1.84974 13.7187 1.89143 13.6352 1.91476L13.6267 1.91729L13.5886 1.92712L13.6132 1.95889C13.7886 2.18232 13.8341 2.29522 14.028 2.77638Z" fill="#FEFEFE"/>
<path fill-rule="evenodd" clip-rule="evenodd" d="M15.9326 1.18709C15.9584 1.24967 15.9791 1.30372 15.9951 1.3663C16.0148 1.4449 16.021 1.52829 16.0233 1.59827L16.0283 1.6719L16.0724 1.61428C16.1707 1.48781 16.2308 1.43872 16.5635 1.35159C16.5635 1.35281 16.8309 1.28649 16.9145 1.26569C16.9794 1.46327 17.0629 1.74058 17.2629 2.54449C17.5478 3.69943 17.4937 3.81963 17.4752 3.86498L17.474 3.86863L17.4482 3.92756L17.5084 3.90554L17.5256 3.89805C17.6262 3.86132 17.7244 3.82459 17.83 3.79996C17.9256 3.77541 18.0312 3.75835 18.1318 3.75087L18.1846 3.74599L18.1514 3.70665C18.1074 3.65269 18.0778 3.61831 18.0214 3.47599C17.9256 3.24273 17.8091 2.79116 17.7071 2.38128C17.5551 1.77 17.485 1.44847 17.4236 1.13922L17.7317 1.06192C18.122 0.97967 18.1638 0.97967 18.3516 1.05087L18.4105 1.07541L18.3847 1.01536C18.3528 0.935453 18.3257 0.854506 18.3061 0.783393C18.2864 0.702359 18.2719 0.61645 18.262 0.518268L18.2595 0.483887L18.2251 0.493722C17.9256 0.594341 17.6042 0.68025 17.0433 0.817775C16.5511 0.939196 16.059 1.05949 15.9252 1.06436L15.8872 1.06558L15.9007 1.09996C15.9129 1.1319 15.924 1.16011 15.9326 1.18709Z" fill="#FEFEFE"/>
<path fill-rule="evenodd" clip-rule="evenodd" d="M19.2316 1.87762C19.283 2.23352 19.3224 2.53547 19.3629 2.93559C19.3959 3.28646 19.3739 3.36627 19.3469 3.46698L19.3322 3.51485L19.3813 3.50014C19.4695 3.47298 19.5777 3.44243 19.6881 3.42642C19.801 3.40936 19.9164 3.40936 20.0046 3.40936L20.0538 3.41171L20.0268 3.37001C19.936 3.22762 19.9138 3.17243 19.8574 2.86431C19.7912 2.4876 19.7469 2.20898 19.6881 1.8065L19.6415 1.48741C19.536 0.672451 19.5285 0.588979 19.5937 0.33865L19.6045 0.294434L19.5603 0.305488L19.5481 0.309143C19.4525 0.333776 19.3518 0.360672 19.2511 0.373031C19.153 0.387741 19.0486 0.392615 18.9481 0.395053H18.9345L18.8879 0.396271L18.9124 0.436832C18.9541 0.504289 18.9811 0.549724 19.0278 0.721542C19.0597 0.844269 19.0733 0.913031 19.1848 1.55722L19.2316 1.87762Z" fill="#FEFEFE"/>
<path fill-rule="evenodd" clip-rule="evenodd" d="M22.6593 0.388128C22.6571 0.310836 22.6571 0.226058 22.6668 0.120478L22.6692 0.0874023L22.6373 0.0910581C22.328 0.130313 21.9968 0.149985 21.4136 0.176967C20.9056 0.199075 20.4012 0.219965 20.2688 0.199075L20.2307 0.194201L20.2367 0.230932C20.2429 0.260439 20.2478 0.28864 20.2514 0.314404C20.2649 0.385604 20.2748 0.44453 20.2785 0.510768C20.2822 0.591803 20.2724 0.672838 20.2613 0.742731L20.2504 0.815149L20.3042 0.768582C20.427 0.663002 20.4958 0.627315 20.8395 0.606513C20.8395 0.606513 21.113 0.59424 21.1976 0.590584C21.2235 0.794346 21.2517 1.07784 21.2897 1.91473C21.3426 3.10275 21.2665 3.21086 21.2395 3.25011L21.237 3.25507L21.2003 3.30651L21.2628 3.29676L21.2665 3.29546C21.3794 3.27701 21.4862 3.25995 21.6003 3.25507C21.6997 3.25011 21.8077 3.25507 21.907 3.26482L21.9599 3.27091L21.9329 3.22557C21.901 3.16664 21.8776 3.1273 21.8519 2.97524C21.8041 2.73091 21.7795 2.28544 21.7598 1.83997C21.7291 1.20535 21.7229 0.879037 21.7229 0.567257L22.042 0.552547C22.4385 0.547586 22.4803 0.554985 22.6508 0.663002L22.7024 0.696164L22.6914 0.633582C22.6743 0.545149 22.6618 0.462896 22.6593 0.388128Z" fill="#FEFEFE"/>
<path fill-rule="evenodd" clip-rule="evenodd" d="M24.7321 3.35415C24.8426 3.36764 24.9506 3.39471 25.0414 3.41925L25.0905 3.43379L25.0758 3.38487C25.0241 3.22533 25.0143 3.1664 25.039 2.85462C25.0683 2.48653 25.0978 2.20791 25.1469 1.78811L25.1788 1.46789C25.2843 0.665113 25.3015 0.569456 25.4291 0.343672L25.4513 0.30433H25.4048H25.3923C25.2893 0.30433 25.1862 0.30433 25.088 0.292057C24.985 0.279785 24.8793 0.255239 24.7787 0.230694L24.7321 0.219727L24.7443 0.262638C24.7665 0.33993 24.7813 0.390239 24.7813 0.569456C24.7836 0.7008 24.7787 0.775568 24.7198 1.41871L24.683 1.74024C24.6413 2.10233 24.602 2.40671 24.5407 2.79578C24.4841 3.14307 24.4424 3.21549 24.391 3.30758L24.3665 3.35049L24.413 3.34797C24.5382 3.34196 24.6388 3.34318 24.7321 3.35415Z" fill="#FEFEFE"/>
<path fill-rule="evenodd" clip-rule="evenodd" d="M25.8367 3.50541C25.93 3.51141 26.0182 3.51759 26.1067 3.53848C26.1901 3.55946 26.276 3.59619 26.3595 3.6331L26.3668 3.63545L26.4086 3.6539L26.4012 3.60838C26.3743 3.33838 26.4454 3.03165 26.5117 2.76408V2.75921L26.6442 2.21799C26.7718 1.68896 26.8283 1.40181 26.8628 1.14652C26.8872 1.23974 26.9241 1.36255 26.9806 1.54177L27.0764 1.84981L27.4762 3.15933C27.6112 3.58018 27.6262 3.63545 27.7022 3.94113L27.7095 3.96072H27.7267C27.8101 3.96315 27.8839 3.97168 27.9575 3.98901C28.0335 4.00859 28.1072 4.04045 28.1858 4.06995L28.193 4.07361L28.2251 4.0871L28.2298 4.05028C28.2569 3.76679 28.3208 3.48826 28.3821 3.22792C28.5171 2.67939 28.6497 2.17012 28.7895 1.67425C28.8926 1.31843 28.9565 1.20049 29.0252 1.09255L29.0472 1.05817L29.008 1.05078L28.9908 1.04834C28.9025 1.03607 28.8165 1.02379 28.7403 1.00421C28.6152 0.974702 28.5146 0.942845 28.4532 0.918299L28.4018 0.896191L28.4139 0.947806C28.4336 1.04346 28.4679 1.20301 28.2913 1.93815L28.1587 2.47937C28.1145 2.65981 28.0311 3.00466 27.982 3.25508C27.9647 3.18754 27.9378 3.10528 27.9009 2.98012L27.7832 2.59966L27.4077 1.34167C27.2897 0.855717 27.2776 0.804102 27.2554 0.63594L27.253 0.616355L27.2308 0.613918C27.0811 0.599208 26.9315 0.567265 26.8308 0.542806C26.7253 0.518261 26.627 0.485011 26.492 0.434702L26.4284 0.410156L26.4578 0.471607C26.5215 0.599209 26.546 0.650649 26.4822 1.03859C26.3939 1.55639 26.1263 2.67696 25.9668 3.11512C25.8957 3.31018 25.8514 3.38381 25.7974 3.46241L25.7729 3.50045L25.8196 3.50288L25.8367 3.50541Z" fill="#FEFEFE"/>
<path fill-rule="evenodd" clip-rule="evenodd" d="M31.6933 2.49889C31.7791 2.52717 31.8381 2.5505 31.9339 2.59707C32.1154 2.68298 32.5352 2.88543 32.2873 3.40837C32.1916 3.60831 32.0492 3.74096 31.8847 3.78021C31.7473 3.81703 31.5803 3.7924 31.4011 3.70527C31.3545 3.68455 31.3054 3.65618 31.2466 3.62319L31.1509 3.5741C31.195 3.48567 31.3447 3.17023 31.3447 3.17023C31.5239 2.80579 31.5828 2.69899 31.6736 2.53327L31.6933 2.49889ZM30.2818 4.85908C30.3726 4.90182 30.4636 4.95352 30.5642 5.01244L30.6132 5.04195L30.6034 4.98537C30.6034 4.98041 30.6009 4.97806 30.6009 4.97319C30.5912 4.92149 30.5666 4.79885 30.9495 3.99381C30.9495 3.99381 30.984 3.9274 31.0011 3.89067L31.0771 3.92992C31.1509 3.96796 31.2097 3.99868 31.2736 4.02932C31.5017 4.13864 31.8528 4.27234 32.194 4.15579C32.5009 4.05021 32.68 3.78752 32.7756 3.58628C33.1513 2.79831 32.5304 2.50141 32.1963 2.34421C32.1622 2.32707 32.0712 2.28538 31.9853 2.24612C31.8971 2.20808 31.8086 2.16752 31.7791 2.15281C31.6049 2.07065 31.4919 2.0031 31.3817 1.93556L31.3325 1.90744L31.2932 1.88281V1.92947C31.2907 2.09876 31.1802 2.41794 30.957 2.87943L30.5446 3.74096C30.2795 4.29567 30.0881 4.6111 29.9725 4.67864C29.9725 4.67969 29.9702 4.68099 29.9677 4.68221L29.9236 4.7105L29.9725 4.73008C30.0783 4.77065 30.1812 4.81103 30.2818 4.85908Z" fill="#FEFEFE"/>
<path fill-rule="evenodd" clip-rule="evenodd" d="M34.408 3.96927C34.7493 4.19009 34.8254 4.45522 34.6314 4.75464C34.5898 4.81104 34.4793 4.98303 34.2435 5.02464C34.0129 5.06154 33.8263 4.94117 33.6914 4.85038C33.6275 4.81104 33.5882 4.7818 33.5343 4.73627C33.5882 4.65402 33.7945 4.33623 33.7945 4.33623C33.9244 4.13865 33.9859 4.04404 34.1554 3.82444L34.408 3.96927ZM32.172 5.76475L32.1622 5.76971L32.1155 5.79164L32.1622 5.81749C32.258 5.87154 32.3536 5.92307 32.4421 5.98069C32.5352 6.04075 32.6261 6.11204 32.7094 6.17575L32.7464 6.20291L32.7513 6.15617L32.7537 6.1439C32.7611 6.07766 32.7659 6.02239 32.8201 5.90575C32.8814 5.77824 32.95 5.65542 33.1171 5.38055C33.1171 5.38055 33.2937 5.11307 33.3452 5.03213L33.6054 5.21117C33.625 5.37559 33.6324 5.49605 33.598 6.00167C33.581 6.20778 33.5612 6.44706 33.5171 6.67902L33.5122 6.69869L33.5293 6.70844L33.5932 6.74282C33.6938 6.79687 33.7552 6.82995 33.8411 6.88531C33.9244 6.93919 33.9908 6.9908 34.062 7.05582L34.1282 7.11109L34.1085 7.02884C34.0498 6.79069 34.0546 6.62009 34.0669 6.20291C34.0669 6.20291 34.0914 5.58431 34.0963 5.42851C34.3173 5.48857 34.7909 5.46898 35.0708 5.04196C35.2255 4.80016 35.2818 4.57542 35.2401 4.37418C35.1837 4.09679 34.9531 3.91522 34.7124 3.75933C34.6193 3.69927 34.5285 3.64269 34.4498 3.59378C34.3884 3.55679 34.3369 3.52371 34.2903 3.49551C34.0154 3.31629 33.9736 3.27695 33.8853 3.196L33.8484 3.16162L33.8411 3.2108C33.8068 3.38619 33.6668 3.65619 33.4213 4.03551L32.9991 4.68588C32.6702 5.18297 32.4788 5.47133 32.3536 5.61869C32.2628 5.72297 32.2211 5.74386 32.172 5.76475Z" fill="#FEFEFE"/>
<path fill-rule="evenodd" clip-rule="evenodd" d="M37.3535 6.75489C37.28 7.04343 37.0615 7.32692 36.9338 7.46915C36.7055 7.72827 36.4821 7.89887 36.2662 7.97729C36.1385 8.02403 36.0108 8.0437 35.8882 8.03387C35.7336 8.01663 35.5861 7.9504 35.4659 7.8449C35.1886 7.60049 35.1861 7.29376 35.2132 7.13169C35.2475 6.8986 35.3947 6.63591 35.6451 6.34989C36.0428 5.90085 36.4085 5.71798 36.7669 5.79031C36.8945 5.81973 37.0123 5.87996 37.1155 5.97196C37.2479 6.08738 37.454 6.34519 37.3535 6.75489ZM34.7516 7.14275C34.7542 7.34398 34.8129 7.54174 34.9161 7.71713C34.9946 7.85213 35.1002 7.97729 35.2278 8.09279C35.5666 8.38978 35.9274 8.50998 36.303 8.45358C36.6712 8.39961 37.0271 8.18349 37.3535 7.81174C37.6726 7.45209 37.8371 7.09366 37.8494 6.74767C37.8567 6.37209 37.6776 6.00513 37.3462 5.71189C37.032 5.4344 36.6712 5.31054 36.303 5.3558C36.0477 5.38531 35.6549 5.519 35.245 5.98676C34.9063 6.36956 34.7394 6.75994 34.7516 7.14275Z" fill="#FEFEFE"/>
<path fill-rule="evenodd" clip-rule="evenodd" d="M37.4688 8.70138C37.0884 9.02412 36.8553 9.21936 36.6074 9.31266L36.5657 9.32737L36.5974 9.35688C36.6834 9.43652 36.7619 9.5139 36.8232 9.58501C36.8846 9.65874 36.9435 9.73725 37.0073 9.82803L37.0319 9.86972L37.054 9.82429L37.0588 9.81454C37.086 9.75674 37.1006 9.72619 37.1496 9.66231C37.3043 9.46481 37.5057 9.28681 38.0654 8.8107C38.1708 8.92472 38.2347 8.99592 38.2813 9.04997L38.296 9.06721C38.296 9.06599 38.3081 9.07939 38.3081 9.07939C38.355 9.13467 38.4531 9.25008 38.5145 9.33956C38.6372 9.51146 38.6446 9.5703 38.6593 9.66109L38.6692 9.71766C38.6692 9.72001 38.7084 9.67597 38.7084 9.67597L38.7183 9.66727C38.7747 9.60233 38.836 9.53592 38.9048 9.47221C38.9661 9.41929 39.0226 9.38378 39.084 9.342L39.1207 9.31754L39.1722 9.28551L39.1135 9.26975C39.0986 9.26592 39.0864 9.26349 39.0741 9.26096C39.0079 9.24878 38.9537 9.23894 38.7895 9.07452C38.7034 8.98609 38.6298 8.90383 38.5709 8.82785C38.5539 8.802 38.5291 8.77501 38.4998 8.73828C38.4605 8.69285 38.4137 8.63636 38.3524 8.55907L38.6446 8.30874C38.7895 8.18105 38.8434 8.13187 39.052 7.96867C39.0814 7.99939 39.1084 8.02873 39.1379 8.0571C39.1698 8.09026 39.2043 8.12465 39.2386 8.16025C39.2606 8.18845 39.2901 8.21795 39.3147 8.24485C39.3392 8.27183 39.3662 8.30125 39.3907 8.32954C39.4939 8.44739 39.5821 8.57621 39.6312 8.67074C39.6778 8.77249 39.6706 8.83638 39.6656 8.90383V8.92115L39.6558 9.01316L39.7148 8.93952C39.7688 8.87076 39.8278 8.80939 39.8914 8.75543C39.9529 8.70138 39.9969 8.67318 40.0755 8.6253L40.105 8.60807L40.083 8.58361C39.8864 8.37732 39.6656 8.14536 39.4939 7.94543C39.3317 7.76134 39.1207 7.49386 39.0201 7.36617L38.9759 7.30847L38.949 7.27539L38.9317 7.31212C38.8605 7.44947 38.8187 7.5319 38.08 8.17243L37.4786 8.69407L37.4688 8.70138Z" fill="#FEFEFE"/>
<path fill-rule="evenodd" clip-rule="evenodd" d="M39.0546 10.421L39.0521 10.4223C38.7355 10.6432 38.3771 10.8924 38.3869 11.3342C38.3919 11.5587 38.5219 11.8398 38.6447 12.0301C38.7698 12.2215 38.9688 12.4865 39.2485 12.5884C39.6559 12.7345 39.975 12.5479 40.2572 12.3834H40.2598L41.2096 11.7624C41.6441 11.4912 41.7669 11.436 41.9583 11.3869L42.0001 11.3771L41.9706 11.344C41.9067 11.2716 41.8502 11.2064 41.8036 11.1341C41.757 11.0642 41.7203 10.9942 41.6834 10.901L41.6613 10.8568L41.6367 10.8961C41.5901 10.9672 41.5558 11.0053 41.4723 11.0702C41.4134 11.1193 41.1752 11.2765 40.9813 11.4042L40.2156 11.9023C39.8204 12.1601 39.4105 12.4252 39.0546 11.8791C38.841 11.5465 38.8361 11.2825 39.0496 11.0518C39.1356 10.9524 39.2584 10.869 39.4596 10.7414L40.223 10.2418C40.3678 10.1498 40.5814 10.0099 40.7629 9.93378C40.8832 9.88469 40.9248 9.88234 40.9765 9.88721L41.0402 9.89218L40.9986 9.843L40.9911 9.8356C40.9248 9.75465 40.8561 9.67005 40.7973 9.57796C40.7408 9.4944 40.6967 9.40362 40.6525 9.31396L40.645 9.29943L40.6205 9.25391L40.596 9.29943C40.5346 9.41345 40.5051 9.46629 39.9577 9.83429C39.9577 9.83325 39.0546 10.421 39.0546 10.421Z" fill="#FEFEFE"/>
<path fill-rule="evenodd" clip-rule="evenodd" d="M39.6681 13.5688L39.6216 13.5738L39.6486 13.6117L39.6559 13.6229C39.7099 13.7002 39.7591 13.7749 39.7934 13.8585C39.8302 13.9369 39.8522 14.0302 39.8744 14.1199V14.1235L39.8842 14.1678L39.9187 14.1359C40.1198 13.9443 40.4071 13.8179 40.6598 13.7062L41.1706 13.483C41.6736 13.2608 41.9337 13.1294 42.1522 13.0043C42.0959 13.0804 42.0222 13.1835 41.9141 13.3356L41.7251 13.6019L40.9275 14.715C40.6771 15.0784 40.6427 15.1226 40.4464 15.3693L40.434 15.3851L40.4464 15.4023C40.4954 15.4722 40.5323 15.535 40.5592 15.5999C40.5936 15.6736 40.6132 15.7497 40.6353 15.8294L40.6379 15.8392L40.6476 15.8736L40.6795 15.8552C40.9225 15.7031 41.1827 15.5839 41.4256 15.4761C41.951 15.2428 42.4369 15.0403 42.9058 14.8526C43.2495 14.7199 43.3769 14.6979 43.512 14.6881L43.5563 14.6832L43.5317 14.6464C43.4899 14.5679 43.4409 14.4843 43.4091 14.4083C43.3524 14.2854 43.3181 14.1898 43.301 14.1261L43.2911 14.0744L43.2544 14.1137C43.1905 14.1874 43.085 14.3126 42.3928 14.617L41.8848 14.8428L41.8429 14.8611C41.6441 14.9495 41.3642 15.0734 41.1581 15.174C41.2023 15.1189 41.2513 15.0489 41.325 14.9434L41.5606 14.617L42.3289 13.5566L42.3535 13.5283C42.648 13.1613 42.6824 13.1246 42.7977 13.0067L42.8125 12.9919L42.8027 12.9723C42.7093 12.8251 42.6407 12.6717 42.6161 12.6128C42.5719 12.5135 42.5352 12.4152 42.4934 12.2777L42.4736 12.2114L42.4444 12.2727C42.3855 12.3968 42.356 12.4519 42.0099 12.6361C41.5484 12.8816 40.493 13.349 40.0462 13.4902C39.8376 13.5566 39.7467 13.5626 39.6681 13.5688Z" fill="#FEFEFE"/>
<path fill-rule="evenodd" clip-rule="evenodd" d="M43.6937 16.4163L43.706 16.452C43.7478 16.5588 43.8115 16.7157 43.8509 16.868C43.917 17.1269 43.9025 17.3687 43.8115 17.565C43.6421 17.9258 43.2642 18.062 42.9598 18.1419C42.4223 18.278 42.0393 18.2302 41.7866 17.9933C41.5878 17.8055 41.4895 17.4716 41.465 17.3735C41.3669 16.998 41.4772 16.9661 41.6294 16.9231C41.627 16.9244 42.8027 16.6237 42.8027 16.6237C43.0924 16.5488 43.4826 16.4605 43.6937 16.4163ZM42.1057 16.3157L41.9314 16.3549L41.5779 16.4383C41.0576 16.5536 40.9741 16.5157 40.9275 16.4972L40.8735 16.4715L40.8931 16.5293C40.898 16.5611 40.9103 16.593 40.9225 16.6273C40.9446 16.6911 40.9668 16.7636 40.9963 16.8728C41.0133 16.9391 41.0305 17.0139 41.0452 17.0987C41.0698 17.2043 41.0944 17.3245 41.1287 17.4595C41.2269 17.8412 41.3938 18.3111 41.8306 18.5578C42.2578 18.8021 42.7585 18.7481 43.0998 18.6597C43.2054 18.6328 43.576 18.5296 43.8459 18.3406C44.4006 17.9431 44.3393 17.3785 44.2263 16.9294C44.1847 16.7771 44.143 16.6544 44.1061 16.5391C44.0644 16.4285 44.03 16.3255 43.9981 16.2052C43.9638 16.0628 43.9294 15.8321 43.9294 15.7731L43.9269 15.7266L43.8876 15.7511C43.6643 15.8861 43.5857 15.9316 42.6089 16.188C42.6089 16.188 42.1032 16.3157 42.1057 16.3157Z" fill="#FEFEFE"/>
<path fill-rule="evenodd" clip-rule="evenodd" d="M43.2076 19.4671C42.8272 19.5186 42.5326 19.5554 42.1472 19.5924C41.7988 19.6241 41.7152 19.5998 41.6146 19.5726L41.5657 19.5604L41.5802 19.607C41.6049 19.6904 41.6367 19.801 41.6538 19.9138C41.6637 20.0048 41.6686 20.1017 41.6662 20.2292L41.6637 20.2808L41.7104 20.2538C41.8501 20.1641 41.9068 20.1421 42.2135 20.0868C42.6014 20.0219 42.8812 19.98 43.274 19.9275L43.5931 19.8819C44.4103 19.7837 44.4938 19.7765 44.7441 19.8426L44.7883 19.8549L44.7761 19.8108V19.807C44.7516 19.7064 44.7221 19.6032 44.7072 19.499C44.695 19.3983 44.6927 19.2929 44.6927 19.1909V19.1847V19.1382L44.6508 19.1602C44.5797 19.2021 44.5355 19.229 44.3662 19.272C44.241 19.305 44.1698 19.3197 43.5267 19.4254L43.2076 19.4671Z" fill="#FEFEFE"/>
<path fill-rule="evenodd" clip-rule="evenodd" d="M44.9602 21.8899C44.9455 21.5437 44.8252 21.2517 44.6264 21.0652C44.4571 20.9068 44.2337 20.8294 43.9858 20.8382C43.5317 20.8542 43.3722 21.1511 43.2666 21.345C43.2643 21.3474 43.0998 21.6936 43.0998 21.6936L43.0973 21.696C42.9966 21.9218 42.8887 22.1576 42.6261 22.1674C42.5081 22.171 42.4001 22.1328 42.3142 22.0544C42.2063 21.9513 42.1449 21.7893 42.1375 21.5855C42.1228 21.1977 42.2702 21.0725 42.4026 20.9646L42.4075 20.9572L42.4591 20.9155L42.3928 20.9118C42.1057 20.8884 42.0541 20.8798 41.8896 20.832L41.8676 20.8247L41.8577 20.8491C41.7988 21.0161 41.7742 21.0897 41.762 21.3155C41.7546 21.404 41.7546 21.4899 41.7571 21.5855C41.7767 22.0961 41.9755 22.349 42.091 22.4545C42.2651 22.614 42.5008 22.6976 42.7537 22.6876C43.2299 22.6694 43.3869 22.3145 43.544 21.9722V21.9685C43.544 21.9672 43.6323 21.7671 43.6323 21.7671C43.7231 21.5732 43.8238 21.3572 44.0914 21.3474C44.3148 21.3402 44.5578 21.5021 44.5724 21.8764C44.5847 22.231 44.4032 22.4017 44.3173 22.484L44.2632 22.5305H44.3344C44.5651 22.5292 44.6338 22.5305 44.8522 22.5796L44.8816 22.5869L44.8842 22.5551C44.8891 22.501 44.894 22.4767 44.9111 22.3513L44.9235 22.2802C44.9357 22.1979 44.9652 22.0213 44.9602 21.8899Z" fill="#FEFEFE"/>
<path fill-rule="evenodd" clip-rule="evenodd" d="M1.83418 27.9168H1.83479H1.83783L2.94856 27.6923C3.45174 27.5964 3.58552 27.5904 3.7831 27.6174L3.82541 27.6235L3.81139 27.5819C3.78197 27.4983 3.75055 27.4148 3.73288 27.3265C3.71626 27.2431 3.70825 27.1609 3.70581 27.0663L3.70529 27.0135L3.66403 27.0419C3.59466 27.0897 3.55001 27.1154 3.44748 27.1449C3.37506 27.1671 3.10567 27.2234 2.86761 27.2726L1.97231 27.4516C1.68638 27.5106 1.36303 27.578 1.14691 27.4332C1.02418 27.3523 0.944971 27.2124 0.90206 27.0026C0.822853 26.6147 0.918685 26.3693 1.20026 26.2318C1.32177 26.1692 1.47897 26.1385 1.69857 26.0944L2.59326 25.9139C2.77056 25.8782 3.01236 25.828 3.20811 25.8268C3.33876 25.8244 3.37741 25.8391 3.42354 25.8625L3.48186 25.8907L3.46097 25.8293L3.45844 25.8195C3.42598 25.7212 3.3922 25.6158 3.37079 25.5076C3.34921 25.4021 3.34068 25.2917 3.33328 25.1935L3.32893 25.1406L3.28854 25.1738C3.18844 25.2573 3.14309 25.2965 2.49751 25.434L1.44145 25.6488L1.4371 25.6501C1.06161 25.7385 0.635716 25.8391 0.483569 26.2513C0.404362 26.4613 0.422205 26.7719 0.466422 26.9915C0.512379 27.2185 0.598288 27.5388 0.819197 27.734C1.14447 28.0211 1.51082 27.9647 1.83418 27.9168Z" fill="#FEFEFE"/>
<path fill-rule="evenodd" clip-rule="evenodd" d="M4.2583 30.7778C4.60925 30.6611 4.74364 30.65 4.87264 30.6475L4.91233 30.6427L4.89527 30.6071C4.84739 30.5113 4.8111 30.4364 4.7829 30.3604C4.73502 30.2365 4.7043 30.1382 4.6902 30.0733L4.67993 30.0216L4.64485 30.061C4.57783 30.1298 4.46572 30.2474 3.75808 30.5176L3.23836 30.7139L3.18004 30.7384C2.98185 30.8145 2.70393 30.92 2.49721 31.0084C2.54195 30.9568 2.59348 30.8906 2.67321 30.79L2.92484 30.4732L3.74886 29.4521C4.08396 29.0816 4.11965 29.0435 4.24542 28.9294L4.26126 28.9148L4.25082 28.8974C4.17283 28.755 4.11094 28.603 4.08274 28.5269C4.04227 28.4176 4.01285 28.3206 3.97908 28.1845L3.96184 28.1157L3.92999 28.177C3.85992 28.3022 3.83067 28.3526 3.47711 28.5194C3.00274 28.7405 1.92518 29.1527 1.47231 29.2707C1.26193 29.3245 1.17036 29.327 1.09064 29.3295L1.04468 29.3319L1.068 29.3712L1.07845 29.3883C1.12502 29.4669 1.16984 29.5406 1.20048 29.6252C1.23182 29.7074 1.24835 29.7971 1.2662 29.8866L1.26794 29.8928L1.27473 29.9407L1.31215 29.9088C1.51835 29.732 1.81107 29.6203 2.07002 29.5197L2.07428 29.5184L2.59348 29.3209C3.10763 29.1257 3.37397 29.0104 3.60167 28.8926C3.53978 28.9663 3.46301 29.0619 3.34882 29.209L3.14331 29.4705L2.28849 30.5383C2.01971 30.8856 1.9828 30.9324 1.77425 31.168L1.75954 31.1827L1.77181 31.2024C1.81725 31.2735 1.85041 31.3374 1.8767 31.406C1.90499 31.4771 1.91961 31.5557 1.93876 31.6317L1.9412 31.649L1.94912 31.6858L1.98106 31.6663C2.22956 31.5262 2.4953 31.4207 2.74623 31.325C3.2905 31.1189 3.78515 30.9397 4.2583 30.7778Z" fill="#FEFEFE"/>
<path fill-rule="evenodd" clip-rule="evenodd" d="M4.50723 32.3613C5.2382 31.9856 5.31297 31.9512 5.57313 31.9268L5.61918 31.9217L5.59272 31.8826L5.58288 31.8703C5.52587 31.7893 5.46755 31.7034 5.42229 31.6175C5.37381 31.5265 5.33638 31.4334 5.29582 31.3254L5.27981 31.2837L5.24986 31.3204C5.20008 31.3818 5.1657 31.421 5.01964 31.5217C4.91476 31.5953 4.85217 31.6346 4.28511 31.9537C4.28632 31.9537 4.001 32.1058 4.001 32.1058C3.68061 32.2753 3.41061 32.4151 3.04878 32.587C2.73073 32.7392 2.64796 32.7467 2.54238 32.7539L2.4939 32.7588L2.5234 32.7957C2.57554 32.8692 2.64361 32.9602 2.69705 33.0606C2.73996 33.1417 2.77626 33.2302 2.81917 33.3528L2.83518 33.4019L2.86573 33.3627C2.96827 33.2277 3.01309 33.1883 3.2837 33.0313C3.61629 32.8398 3.86174 32.7025 4.22191 32.5134L4.50723 32.3613Z" fill="#FEFEFE"/>
<path fill-rule="evenodd" clip-rule="evenodd" d="M7.24661 34.6142L7.29379 34.6092L7.34105 34.5995L7.30972 34.5651C7.25645 34.5012 7.19987 34.4349 7.15269 34.3637C7.12206 34.3196 7.09377 34.2705 7.07227 34.224C7.04355 34.1723 7.02004 34.1257 6.99802 34.0765L6.98262 34.047L6.95511 34.0668C6.95259 34.0716 6.94954 34.0716 6.9465 34.0765C6.84274 34.1698 6.51147 34.3048 5.95911 34.4766C5.95911 34.4766 4.78467 34.8373 4.46984 34.9331C4.73497 34.5699 4.81165 34.4693 5.28237 33.8679L5.50328 33.5831C5.67327 33.3623 5.75978 33.2495 5.83838 33.1562C6.01246 32.9449 6.10151 32.9131 6.14015 32.8983C6.14389 32.896 6.14633 32.8934 6.14938 32.8934L6.18376 32.8787L6.15982 32.8518L6.15495 32.8443C6.08488 32.7633 6.01377 32.6824 5.9531 32.594C5.89287 32.5081 5.84204 32.4147 5.78799 32.3092L5.76109 32.2578L5.74011 32.3118C5.70338 32.4001 5.67927 32.4394 5.62774 32.5277C5.53827 32.6726 5.44557 32.8076 5.16573 33.1952L4.32144 34.3318C4.24946 34.4349 4.12255 34.6017 3.998 34.7492C3.9066 34.862 3.8771 34.8915 3.83166 34.9356L3.81756 34.948L3.7998 34.9651L3.81565 34.9823L3.83053 35.0018C3.88441 35.0656 3.93968 35.1344 3.98625 35.2033C4.03969 35.2793 4.08695 35.3651 4.12621 35.4389L4.13918 35.4608L4.1625 35.4511C4.48655 35.3137 4.61337 35.2719 5.06886 35.1443C5.6603 34.9724 6.14015 34.8448 6.58023 34.7466C6.92561 34.6607 7.10247 34.6337 7.24661 34.6142Z" fill="#FEFEFE"/>
<path fill-rule="evenodd" clip-rule="evenodd" d="M6.43533 37.6846C6.34071 37.6037 6.27447 37.5325 6.24262 37.4957C5.93467 37.1544 5.94746 37.1226 6.18674 36.9041C6.18674 36.9041 6.64509 36.4894 6.74206 36.4009C6.96975 36.6416 7.09553 36.7815 7.22313 36.9533C7.29999 37.0613 7.31278 37.1053 7.33367 37.2305L7.3429 37.292L7.38285 37.2429C7.43795 37.1692 7.47851 37.1203 7.56006 37.0489C7.65215 36.9656 7.70603 36.9263 7.79699 36.8674L7.86009 36.8255L7.78524 36.8183L7.77862 36.8158C7.71282 36.8085 7.66738 36.8035 7.60245 36.7618C7.50801 36.7003 7.38093 36.5581 7.33907 36.5116C7.1998 36.3569 7.12373 36.2636 7.03103 36.1433L7.35935 35.8439C7.46737 35.7481 7.59384 35.6376 7.71352 35.5395C7.82267 35.6499 7.88525 35.7137 7.98352 35.8242C8.31001 36.1825 8.31732 36.2537 8.29147 36.4427L8.27928 36.5311L8.33699 36.4673C8.39087 36.4083 8.4363 36.3617 8.48905 36.3127C8.53205 36.2758 8.57626 36.239 8.6217 36.2046C8.6512 36.18 8.68054 36.1555 8.71248 36.1285L8.73468 36.1088L8.71501 36.0892C8.50506 35.8756 8.26205 35.6253 8.05463 35.3947C7.77671 35.0877 7.68035 34.9601 7.62935 34.889L7.62143 34.8792L7.5981 34.8472L7.57617 34.8815C7.43177 35.1247 7.34098 35.2105 6.96183 35.5614L6.9392 35.5836L6.13329 36.3127C5.93824 36.4869 5.71315 36.6857 5.51 36.8158C5.42948 36.8649 5.37613 36.8919 5.28465 36.9263L5.24365 36.9385L5.27673 36.9703C5.44611 37.1203 5.5671 37.2552 5.83213 37.5473L5.84197 37.5571C6.08673 37.8294 6.23583 38.0112 6.33453 38.134C6.36656 38.1731 6.39285 38.2051 6.41626 38.2297L6.4321 38.2518L6.45178 38.237C6.63526 38.1093 6.68565 38.0799 6.92188 37.9743L7.00779 37.9375L6.9157 37.9227C6.77774 37.9032 6.66111 37.8835 6.43533 37.6846Z" fill="#FEFEFE"/>
<path fill-rule="evenodd" clip-rule="evenodd" d="M9.48093 37.3167L9.7129 37.4933C9.8774 37.6309 9.96819 37.7756 9.98037 37.9205C9.99021 38.0457 9.94234 38.1732 9.83554 38.2984C9.79263 38.35 9.65763 38.5071 9.41966 38.5194C9.18639 38.5267 9.01701 38.3845 8.89184 38.2789C8.83292 38.2298 8.79854 38.1978 8.74945 38.1462L9.0587 37.7806L9.0661 37.7707C9.21711 37.594 9.28936 37.5081 9.48093 37.3167ZM10.2356 38.6371C10.421 38.4187 10.5069 38.2027 10.4897 37.9991C10.4628 37.6749 10.1903 37.4467 10.043 37.3216C9.95583 37.2502 9.87122 37.1791 9.7975 37.1226C9.7411 37.0785 9.69436 37.0392 9.65528 37.0074C9.4073 36.7988 9.37048 36.7545 9.28936 36.6588L9.25881 36.6221L9.24279 36.6686C9.18883 36.838 9.01936 37.0883 8.72612 37.4369L8.22668 38.0284C7.85101 38.4678 7.61304 38.7404 7.47125 38.8753C7.36567 38.9685 7.32407 38.9808 7.26932 38.9979L7.26149 39.0005L7.20874 39.0176L7.25339 39.0495C7.34609 39.1133 7.43513 39.1771 7.51356 39.2459C7.59468 39.3147 7.67197 39.3884 7.74674 39.4619L7.75361 39.4693L7.78974 39.5037L7.79957 39.4545L7.80253 39.4473C7.81741 39.3809 7.8296 39.3294 7.89775 39.2189C7.97252 39.1011 8.0573 38.9857 8.25854 38.7329C8.25854 38.7329 8.46595 38.49 8.52854 38.4163L8.76416 38.625C8.76181 38.7894 8.75563 38.912 8.65623 39.408C8.61566 39.6116 8.56527 39.8425 8.49181 40.0706L8.48684 40.0879L8.50164 40.1001L8.56657 40.1443C8.65622 40.2105 8.71263 40.2498 8.7887 40.3161C8.86982 40.3825 8.93223 40.4486 8.98881 40.51L9.04651 40.5738L9.03668 40.4903C9.00717 40.2522 9.03172 40.0975 9.09674 39.6803L9.09926 39.6656C9.09926 39.6656 9.19858 39.0545 9.22321 38.9023C9.43419 38.9881 9.90796 39.025 10.2356 38.6371Z" fill="#FEFEFE"/>
<path fill-rule="evenodd" clip-rule="evenodd" d="M11.5191 40.0882C11.518 40.0882 11.405 39.9015 11.405 39.9015C11.2982 39.72 11.1769 39.5113 11.3217 39.2855C11.4418 39.1014 11.7144 38.991 12.0298 39.1947C12.3317 39.3862 12.3673 39.6414 12.3833 39.7494L12.3919 39.8231L12.4311 39.7641C12.5623 39.5728 12.6042 39.5162 12.7674 39.3689L12.7919 39.3444L12.7674 39.3247C12.7281 39.293 12.711 39.2757 12.6337 39.202L12.5623 39.1383L12.5611 39.1358C12.4925 39.0719 12.371 38.9542 12.2642 38.8854C11.7144 38.5343 11.1449 38.6129 10.8442 39.0817C10.5988 39.4647 10.7498 39.7665 10.8491 39.9629C10.8503 39.9629 11.0394 40.2992 11.0394 40.3016L11.0419 40.3041C11.1682 40.5178 11.3008 40.736 11.1584 40.9571C11.0958 41.0577 11.0001 41.1239 10.8897 41.1486C10.7435 41.1829 10.5754 41.1387 10.4012 41.0283C10.0748 40.8172 10.0564 40.6256 10.0428 40.4539V40.4489L10.0355 40.3828L9.99366 40.4319C9.8121 40.6551 9.77406 40.6894 9.64272 40.8L9.62305 40.8172L9.63776 40.8369C9.73968 40.9766 9.78747 41.0404 9.96433 41.1829C10.0415 41.2419 10.1115 41.2909 10.1852 41.3375C10.6147 41.6148 10.9375 41.5951 11.0909 41.5585C11.3192 41.5093 11.5217 41.3621 11.658 41.1509C11.9156 40.7485 11.7156 40.4169 11.5217 40.0931L11.5191 40.0882Z" fill="#FEFEFE"/>
<path fill-rule="evenodd" clip-rule="evenodd" d="M14.0893 39.9237L14.0476 39.9089L14.0244 39.8991C13.9347 39.8646 13.8403 39.8328 13.7544 39.7861C13.6598 39.7396 13.5703 39.6782 13.4819 39.6216L13.4425 39.5947L13.4401 39.6413C13.4353 39.7198 13.4315 39.7763 13.3701 39.9407C13.3272 40.061 13.2951 40.1298 13.0179 40.7139L12.8706 41.0012C12.7074 41.3251 12.5651 41.595 12.3686 41.9436C12.1956 42.248 12.1319 42.302 12.0508 42.3708L12.0115 42.4026L12.0606 42.4148C12.1417 42.442 12.2508 42.4813 12.354 42.5328C12.4557 42.5868 12.549 42.6481 12.6215 42.7044L12.662 42.7316L12.6644 42.6801C12.6719 42.5131 12.684 42.4592 12.8167 42.1719C12.9774 41.8258 13.1014 41.573 13.2878 41.2097L13.4328 40.92C13.8168 40.1937 13.8561 40.1225 14.0549 39.9529L14.0893 39.9237Z" fill="#FEFEFE"/>
<path fill-rule="evenodd" clip-rule="evenodd" d="M15.9266 41.1727C16.2934 41.3248 16.3278 41.3519 16.4383 41.5164L16.474 41.5678L16.4874 41.5065C16.507 41.4181 16.5291 41.3395 16.5561 41.2684C16.5868 41.1924 16.625 41.1137 16.6715 41.0279L16.6888 41.0009L16.6567 40.9886C16.35 40.8978 16.0408 40.7824 15.5021 40.5737C14.9412 40.3602 14.5471 40.2031 14.4429 40.1368L14.4109 40.1147L14.4012 40.1541C14.3937 40.1835 14.3875 40.2104 14.3815 40.2399C14.3655 40.3063 14.352 40.3626 14.3275 40.424C14.3004 40.4977 14.2587 40.5665 14.217 40.6302L14.179 40.6917L14.2476 40.6695C14.4035 40.6252 14.4785 40.618 14.801 40.7382C14.801 40.7382 15.0588 40.8365 15.1374 40.8683C15.0785 41.0671 14.9877 41.342 14.6908 42.1151C14.2623 43.2271 14.1482 43.2933 14.1065 43.3181L14.1041 43.3228L14.05 43.3547L14.1115 43.3695L14.1335 43.3768C14.2367 43.4063 14.3373 43.4308 14.4354 43.4675C14.531 43.5045 14.627 43.5511 14.7116 43.6026L14.757 43.6297L14.7521 43.5757C14.7446 43.5095 14.741 43.4652 14.7767 43.313C14.8331 43.0701 14.9963 42.6307 15.1496 42.2356C15.3804 41.6341 15.5055 41.3346 15.6283 41.0573L15.9266 41.1727Z" fill="#FEFEFE"/>
<path fill-rule="evenodd" clip-rule="evenodd" d="M17.7491 42.3581L17.7515 42.3902C17.7515 42.3925 17.7761 42.9793 17.7835 43.1288C17.6496 43.1044 17.5123 43.0774 17.3809 43.0479C17.2434 43.0111 17.106 42.9694 16.9832 42.9326L17.7504 41.6636L17.7491 41.7372C17.7417 42.0073 17.7442 42.1203 17.7491 42.3581ZM18.353 44.1746C18.3432 44.0888 18.3345 43.9733 18.3272 43.8652C18.3186 43.7572 18.3111 43.6395 18.3015 43.5535C18.3015 43.5561 18.2229 42.3336 18.2229 42.3336C18.1947 41.887 18.1935 41.7372 18.2105 41.4009V41.3765L18.186 41.3715C18.0682 41.3592 17.9627 41.3445 17.8608 41.3175C17.7491 41.2905 17.6361 41.2464 17.5368 41.212L17.5123 41.2021L17.5037 41.2267C17.4424 41.369 17.3907 41.4746 17.16 41.8502L16.372 43.1264C16.0346 43.6691 15.9757 43.7402 15.7609 43.961L15.7217 44.0002L15.7781 44.0076C15.8763 44.0174 15.9695 44.0298 16.0578 44.0494C16.1523 44.0714 16.2395 44.1083 16.3278 44.1426L16.3573 44.1575L16.3622 44.1205C16.3697 44.0789 16.372 44.0666 16.3782 44.0445C16.3917 43.9905 16.4064 43.9635 16.5758 43.6444L16.593 43.6149C16.593 43.6149 16.7316 43.367 16.7698 43.3008H16.7722C16.9575 43.3352 17.1318 43.3621 17.3072 43.4063C17.4655 43.4479 17.6276 43.4947 17.7945 43.5511L17.8128 43.9733C17.8166 44.1328 17.819 44.2826 17.8006 44.3636C17.7933 44.3882 17.7835 44.4152 17.7724 44.4348C17.77 44.4446 17.7663 44.4544 17.7638 44.4594L17.7491 44.4937L17.7858 44.496C17.873 44.506 17.9871 44.5182 18.1025 44.5452C18.1957 44.5672 18.2953 44.6017 18.4168 44.6507L18.4904 44.6827L18.451 44.6163C18.4094 44.5379 18.3762 44.4838 18.353 44.1746Z" fill="#FEFEFE"/>
<path fill-rule="evenodd" clip-rule="evenodd" d="M20.9963 41.8332L20.9252 41.8135C20.844 41.7866 20.6748 41.7351 20.5435 41.7202C19.8967 41.6491 19.4229 41.973 19.3616 42.5277C19.3125 42.9795 19.5799 43.1807 19.758 43.3132C19.7592 43.3157 20.0759 43.5293 20.0771 43.5293L20.0808 43.5317C20.2882 43.6693 20.5054 43.8091 20.4771 44.0668C20.4638 44.1846 20.4072 44.2853 20.3189 44.359C20.2023 44.4521 20.034 44.489 19.8303 44.467C19.4426 44.4251 19.342 44.2583 19.2535 44.1134L19.2487 44.1087L19.2142 44.0496L19.1995 44.1134C19.1357 44.3933 19.1185 44.4423 19.0474 44.5995L19.0376 44.6216L19.0596 44.6339C19.2155 44.7173 19.2866 44.7515 19.5064 44.7983C19.5923 44.8154 19.6807 44.8278 19.7726 44.84C20.2807 44.8964 20.5605 44.737 20.6821 44.6362C20.8662 44.4939 20.9816 44.2705 21.011 44.0177C21.0625 43.544 20.7338 43.3354 20.417 43.1291H20.4121L20.228 43.0137C20.0514 42.8984 19.8499 42.7634 19.8795 42.4983C19.8918 42.3829 19.9507 42.2774 20.0402 42.2038C20.1495 42.1179 20.2993 42.0811 20.4711 42.1007C20.8269 42.1375 20.9681 42.3462 21.0356 42.4419L21.0773 42.5008L21.0847 42.4321C21.1191 42.2038 21.1289 42.1375 21.2099 41.9265L21.2221 41.897L21.1913 41.8896C21.1361 41.8799 21.1166 41.8701 20.9963 41.8332Z" fill="#FEFEFE"/>
<path fill-rule="evenodd" clip-rule="evenodd" d="M23.9014 43.6102L24.2191 42.162L24.2413 42.2332C24.3198 42.491 24.3591 42.5915 24.4426 42.8174L24.4548 42.8492C24.4548 42.8492 24.6709 43.4014 24.7224 43.539C24.5898 43.5586 24.4501 43.5784 24.3174 43.5881C24.1801 43.6028 24.045 43.6052 23.9014 43.6102ZM25.6011 44.3416C25.5644 44.2631 25.5176 44.1599 25.476 44.0569C25.4318 43.9562 25.3876 43.8507 25.3532 43.7721C25.3532 43.7747 24.8845 42.6431 24.8845 42.6431C24.72 42.2479 24.666 42.1056 24.5677 41.7643L24.5629 41.7397L24.5359 41.7448C24.4327 41.7668 24.3198 41.7888 24.2143 41.7988C24.1015 41.8085 23.9885 41.8061 23.8707 41.8012H23.846L23.8436 41.8281C23.8328 41.9901 23.8167 42.1056 23.7198 42.5277L23.3872 43.9906C23.246 44.587 23.2152 44.6927 23.0779 44.9797L23.0544 45.0289L23.1061 45.0142C23.2031 44.9945 23.2975 44.9749 23.3872 44.9676C23.4842 44.9552 23.581 44.9627 23.6719 44.9676H23.7063L23.6989 44.9332C23.6927 44.8939 23.6903 44.8816 23.6879 44.8569C23.6841 44.8006 23.6879 44.7736 23.7467 44.4103L23.7529 44.3809C23.7529 44.3809 23.8056 44.1036 23.8191 44.0273H23.8266C24.013 43.9979 24.1848 43.9686 24.3666 43.9538C24.5334 43.9415 24.7053 43.9342 24.8696 43.9342L25.0242 44.3294C25.0808 44.4767 25.1299 44.619 25.1372 44.6976C25.1421 44.7245 25.1372 44.7514 25.1372 44.7761C25.1372 44.7859 25.1348 44.7933 25.1348 44.8055L25.1324 44.8399L25.1691 44.8326C25.2943 44.8006 25.3924 44.7809 25.4834 44.7736C25.5791 44.7663 25.6846 44.7663 25.8171 44.7761L25.8957 44.7809L25.8367 44.7294C25.7705 44.6705 25.724 44.6263 25.6011 44.3416Z" fill="#FEFEFE"/>
<path fill-rule="evenodd" clip-rule="evenodd" d="M26.799 42.8811C26.7769 42.7828 26.6909 42.4122 26.6909 42.4122C26.6369 42.1766 26.6149 42.0735 26.5706 41.8011L26.8504 41.72C27.0615 41.6734 27.2309 41.6832 27.3537 41.7642C27.4617 41.828 27.5329 41.9434 27.5695 42.1029C27.5869 42.1693 27.6335 42.368 27.4984 42.5692C27.3684 42.7608 27.1498 42.8123 26.9903 42.8467C26.9192 42.8663 26.87 42.8738 26.799 42.8811ZM28.2298 43.5119C28.2298 43.5119 27.7954 43.0652 27.6898 42.9548C27.8863 42.8393 28.2004 42.481 28.0826 41.9827C27.8838 41.1262 27.2259 41.2782 26.9119 41.3543C26.8013 41.3788 26.7007 41.4059 26.6124 41.4303C26.5388 41.4476 26.4798 41.4647 26.4283 41.4746C26.1116 41.5508 26.0552 41.5531 25.93 41.5606L25.8809 41.5654L25.9104 41.6046C26.0135 41.7495 26.1141 42.0343 26.2171 42.4761L26.394 43.232C26.5264 43.8138 26.6026 44.1524 26.6197 44.3415C26.6345 44.4814 26.6197 44.5256 26.6001 44.5771L26.5976 44.5845L26.5804 44.636L26.6321 44.6189C26.7351 44.5869 26.8406 44.555 26.9437 44.5282C27.0418 44.5084 27.1426 44.4937 27.2383 44.4766L27.2678 44.4691L27.3169 44.4617L27.2873 44.4275L27.2776 44.4176C27.2334 44.3685 27.199 44.3243 27.1524 44.2041C27.1008 44.074 27.059 43.9315 26.9782 43.6272C26.9805 43.6272 26.9068 43.3181 26.8824 43.2222L27.194 43.1584C27.3216 43.2566 27.415 43.3352 27.7561 43.7081C27.8961 43.8653 28.0555 44.0446 28.1906 44.2385L28.2029 44.2555L28.2225 44.2483L28.2914 44.2238C28.3992 44.1917 28.4656 44.1697 28.5662 44.1477C28.657 44.1255 28.7429 44.1132 28.8411 44.1035L28.9245 44.096L28.8509 44.0544C28.6423 43.9315 28.5293 43.8162 28.2298 43.5119Z" fill="#FEFEFE"/>
<path fill-rule="evenodd" clip-rule="evenodd" d="M31.8257 42.5108C31.7031 42.2654 31.5704 41.9413 31.4158 41.5633L31.4085 41.5437L31.2759 41.2173C31.1532 40.8907 31.0183 40.5251 30.957 40.287C30.9225 40.1666 30.9177 40.1004 30.9078 40.0217L30.9053 40.0021L30.9028 39.9604L30.8661 39.9825L30.8341 39.9974C30.7532 40.0414 30.6746 40.0857 30.5911 40.12C30.4954 40.1568 30.3922 40.1862 30.2941 40.2108L30.2893 40.2157L30.2451 40.2255L30.2745 40.2575C30.3506 40.3409 30.4095 40.4048 30.5544 40.714C30.5985 40.8074 30.6379 40.9005 30.6845 41.0086L30.7481 41.156C30.7481 41.156 30.8096 41.3055 30.8316 41.3669L30.7237 41.4135C30.5495 41.4922 30.3972 41.5584 30.2303 41.6272C30.0216 41.7105 29.8204 41.7867 29.6044 41.8628L29.5331 41.6885C29.4596 41.5092 29.3293 41.1754 29.273 40.962C29.2412 40.8294 29.2435 40.7655 29.2435 40.6894L29.2461 40.6797L29.2485 40.6331L29.2043 40.6551L29.1896 40.6626C29.1037 40.7092 29.0177 40.7557 28.9221 40.7975C28.8287 40.8317 28.7281 40.8612 28.6323 40.8883L28.6202 40.8907L28.5735 40.903L28.6078 40.9375C28.6521 40.9817 28.7061 41.038 28.8337 41.2786C28.9342 41.4847 29.0521 41.7671 29.1799 42.0714L29.3098 42.3929C29.4276 42.6849 29.5406 42.96 29.6658 43.3355C29.7493 43.5833 29.7493 43.6498 29.7418 43.7773L29.7394 43.824L29.7787 43.8018L29.7909 43.7968C29.8842 43.7478 29.98 43.6963 30.0731 43.657C30.1714 43.6153 30.2745 43.5884 30.3801 43.5612L30.4242 43.5465L30.3899 43.5122C30.2867 43.4141 30.2081 43.3428 29.8989 42.5892C29.8989 42.5918 29.7909 42.3218 29.7592 42.2383C29.9823 42.1352 30.1837 42.0419 30.3726 41.9683C30.5445 41.8971 30.7261 41.8283 30.9814 41.7425L31.1239 42.1009C31.308 42.5918 31.406 42.8618 31.4158 43.1023V43.1465L31.4577 43.1245C31.5557 43.0679 31.6491 43.019 31.7424 42.9796C31.8332 42.9404 31.9289 42.9157 32.0271 42.8912L32.0416 42.8863L32.086 42.8741L32.0515 42.8396C31.9927 42.7857 31.9387 42.734 31.8257 42.5108Z" fill="#FEFEFE"/>
<path fill-rule="evenodd" clip-rule="evenodd" d="M33.9493 39.1797C33.6914 38.7404 33.6374 38.6152 33.5958 38.4237L33.5833 38.377L33.5516 38.4065C33.4828 38.463 33.4116 38.5218 33.338 38.571C33.2642 38.6126 33.1957 38.6447 33.0999 38.6839L33.0532 38.701L33.095 38.7305C33.1662 38.7796 33.203 38.8139 33.2642 38.8999C33.3085 38.9612 33.4608 39.1994 33.5811 39.4006L34.0595 40.1787C34.2093 40.4265 34.3837 40.7114 34.3222 40.9618C34.2854 41.1066 34.1848 41.2268 34.0007 41.3372C33.6619 41.5458 33.3994 41.5385 33.1735 41.32C33.0752 41.2292 32.9919 41.0918 32.874 40.9003L32.4003 40.1223C32.3045 39.9651 32.1744 39.7565 32.1058 39.5725C32.0614 39.4546 32.0614 39.4104 32.064 39.3613L32.0714 39.2975L32.0223 39.3343L32.0198 39.3368C31.9364 39.4029 31.848 39.4718 31.7524 39.5306C31.6639 39.5846 31.5706 39.6263 31.4701 39.6729L31.4209 39.6951L31.4676 39.7196C31.5804 39.786 31.6321 39.8154 31.9806 40.375L32.5403 41.2954C32.5427 41.298 32.545 41.3005 32.545 41.3005C32.7586 41.622 32.9969 41.9877 33.4362 41.9877C33.6619 41.99 33.9467 41.8675 34.1358 41.752C34.3346 41.6318 34.6069 41.4428 34.715 41.1655C34.8721 40.7653 34.6953 40.4389 34.5383 40.1518C34.5383 40.1493 33.9493 39.1797 33.9493 39.1797Z" fill="#FEFEFE"/>
<path fill-rule="evenodd" clip-rule="evenodd" d="M35.7825 38.3969L35.7777 38.3992L35.5665 38.4532C35.3604 38.4951 35.1247 38.5466 34.9529 38.3405C34.8128 38.1685 34.7957 37.8765 35.0829 37.636C35.3604 37.4102 35.6057 37.4519 35.7236 37.4739L35.7898 37.4863L35.7456 37.4299C35.6057 37.2432 35.5665 37.1918 35.4733 36.9904L35.4609 36.9609L35.4364 36.9758C35.3921 37.0052 35.3725 37.0174 35.2842 37.0666L35.1935 37.1132C35.1174 37.1524 34.9603 37.2383 34.862 37.3218C34.5946 37.5402 34.4324 37.8102 34.4055 38.0852C34.3859 38.3159 34.4571 38.5417 34.6117 38.7307C34.9013 39.0817 35.2328 39.0302 35.4511 38.9982C35.4537 38.9982 35.8317 38.9198 35.8317 38.9198H35.8341C36.077 38.8631 36.3275 38.8068 36.4943 39.008C36.5681 39.0989 36.6047 39.2094 36.5925 39.3223C36.5778 39.472 36.487 39.6193 36.3275 39.7494C36.0304 39.9973 35.839 39.953 35.6745 39.9162L35.6648 39.9113L35.5984 39.8992L35.6353 39.9555C35.7924 40.1937 35.8168 40.2426 35.8757 40.4023L35.8881 40.4244L35.9126 40.4194C36.0795 40.363 36.1531 40.3359 36.3396 40.2108C36.4183 40.1592 36.487 40.1076 36.5558 40.0512C36.951 39.7248 37.0319 39.4156 37.0467 39.2559C37.0686 39.0227 36.9926 38.7871 36.8305 38.5909C36.5286 38.2251 36.1507 38.3134 35.7825 38.3969Z" fill="#FEFEFE"/>
<path fill-rule="evenodd" clip-rule="evenodd" d="M38.1586 37.8051C37.8862 37.5522 37.685 37.3559 37.3855 37.0613L37.1572 36.833C36.5852 36.2439 36.5287 36.185 36.4306 35.9444L36.4134 35.9028L36.384 35.9396L36.3791 35.9468C36.3151 36.0255 36.249 36.1065 36.1778 36.1777C36.1018 36.2561 36.0134 36.3249 35.9373 36.3838L35.9004 36.4133L35.9421 36.4329C36.0157 36.4599 36.0648 36.4795 36.2048 36.59C36.3079 36.671 36.3594 36.7153 36.8357 37.1669C36.8357 37.1644 37.0639 37.3927 37.0639 37.3927C37.324 37.6505 37.5376 37.8687 37.8051 38.161C38.0432 38.4211 38.0752 38.4948 38.112 38.5954L38.1316 38.642L38.1586 38.6027C38.2102 38.5292 38.2789 38.4359 38.36 38.3573C38.4261 38.2934 38.4999 38.2298 38.6054 38.1537L38.6447 38.1265L38.5979 38.107C38.4386 38.048 38.3869 38.0185 38.1586 37.8051Z" fill="#FEFEFE"/>
<path fill-rule="evenodd" clip-rule="evenodd" d="M40.1444 35.5276L40.0952 35.4491V35.5422C40.0952 35.6823 40.0952 35.8001 39.9333 36.0504C39.8695 36.1584 39.8105 36.2321 39.7787 36.2714C39.489 36.6296 39.4546 36.6198 39.1994 36.4186C39.1994 36.4186 38.7206 36.0333 38.6176 35.9472C38.8164 35.6871 38.9343 35.5448 39.0865 35.3901C39.1846 35.2968 39.224 35.2748 39.3443 35.238L39.4031 35.2158L39.3491 35.1889C39.2682 35.1421 39.2115 35.1078 39.1306 35.0415C39.0251 34.9582 38.9784 34.9065 38.9121 34.8354L38.8631 34.7789L38.8679 34.8551V34.8599C38.8704 34.9262 38.8729 34.9705 38.8409 35.044C38.7944 35.1447 38.674 35.2944 38.6348 35.341C38.4973 35.5104 38.4138 35.6012 38.3181 35.7043L37.9696 35.4245C37.8593 35.3338 37.7339 35.2256 37.6162 35.1227C37.7046 35.0022 37.7585 34.9287 37.8541 34.8108C38.1585 34.4354 38.2274 34.4157 38.419 34.4108H38.5048L38.436 34.3617C38.3623 34.3151 38.3132 34.2807 38.2591 34.2365C38.2126 34.1996 38.1709 34.1627 38.1293 34.1188C38.1021 34.0966 38.0727 34.072 38.0432 34.0451L38.0212 34.0254L38.004 34.0474C37.8518 34.2513 37.6284 34.5507 37.4197 34.8083C37.1621 35.1274 37.0468 35.2428 36.9853 35.3043L36.9755 35.3141L36.9485 35.3435L36.9853 35.3607C37.2505 35.4662 37.3388 35.5349 37.761 35.8663L37.7781 35.881L38.6251 36.5634C38.8262 36.7328 39.0595 36.9218 39.2165 37.1034C39.278 37.1722 39.3122 37.2236 39.3613 37.3095L39.3835 37.3464L39.4079 37.3095C39.5331 37.1132 39.6486 36.9708 39.9013 36.6568C40.1273 36.3793 40.2842 36.205 40.3897 36.0873C40.4242 36.048 40.4537 36.0136 40.4782 35.9866L40.493 35.9694L40.4757 35.9523C40.3236 35.7926 40.2842 35.746 40.1444 35.5276Z" fill="#FEFEFE"/>
<path fill-rule="evenodd" clip-rule="evenodd" d="M41.6784 32.4668C41.1849 32.1771 40.7359 31.9021 40.3088 31.6273C39.9969 31.426 39.9013 31.3302 39.8202 31.2346L39.7907 31.2051L39.7737 31.2395L39.7687 31.2467C39.732 31.3302 39.6926 31.4112 39.6534 31.4774C39.5846 31.5929 39.5283 31.6788 39.4863 31.7304L39.452 31.7722L39.5037 31.7769C39.6017 31.7843 39.7638 31.799 40.4168 32.1821L40.893 32.4643L40.9027 32.4692C41.0868 32.5772 41.3716 32.7467 41.5876 32.8595C41.5188 32.857 41.4329 32.857 41.3028 32.8595H40.9001L39.5919 32.8521H39.5773C39.0864 32.8226 39.0349 32.8201 38.8703 32.7932L38.8458 32.7907L38.8408 32.8103C38.7747 32.97 38.6888 33.1173 38.6567 33.1712C38.5978 33.2719 38.5389 33.3577 38.453 33.4658L38.4114 33.5198L38.4801 33.5124C38.6151 33.4878 38.6789 33.4756 39.0274 33.6498C39.4988 33.883 40.4952 34.4671 40.8684 34.7469C41.0426 34.8771 41.1016 34.9458 41.1554 35.0048L41.1849 35.0415L41.1996 34.9973L41.2046 34.9826C41.239 34.8944 41.2684 34.8133 41.3151 34.7348C41.3593 34.6611 41.4182 34.5924 41.477 34.5212L41.482 34.5163L41.5115 34.4795L41.4696 34.4746C41.1974 34.4205 40.9248 34.261 40.6868 34.1188L40.2055 33.8389C39.7344 33.5614 39.4791 33.4264 39.2433 33.3161C39.3392 33.321 39.4667 33.3209 39.6558 33.3184L39.9798 33.3161C39.9772 33.3161 41.3494 33.3135 41.3494 33.3135C41.7864 33.3086 41.8429 33.3111 42.162 33.3234L42.1815 33.3258L42.1915 33.3062C42.216 33.2251 42.2428 33.1614 42.2846 33.0975C42.3239 33.0288 42.3729 32.9675 42.4246 32.9036L42.4319 32.8938L42.4541 32.8692L42.4221 32.8521C42.1546 32.7467 41.909 32.6042 41.6784 32.4668Z" fill="#FEFEFE"/>
<path fill-rule="evenodd" clip-rule="evenodd" d="M42.7387 29.8401C42.2995 29.6586 42.0099 29.9187 41.7276 30.1665L41.7226 30.1691L41.5606 30.3176C41.4012 30.4562 41.2145 30.6083 40.969 30.509C40.8635 30.4686 40.7751 30.3788 40.731 30.2746C40.6771 30.1457 40.6818 29.9936 40.7482 29.8315C40.8856 29.5002 41.1213 29.4204 41.2342 29.3835L41.3004 29.3615L41.2367 29.332C41.0206 29.2387 40.9641 29.2068 40.7849 29.0742L40.7603 29.0571L40.7457 29.0817C40.7187 29.1259 40.7089 29.1456 40.6598 29.2216L40.5984 29.3173C40.5518 29.3885 40.4537 29.5358 40.402 29.6586C40.1567 30.2599 40.3383 30.8047 40.8537 31.0158C41.2759 31.1875 41.5409 30.9864 41.7203 30.8514L42.0172 30.6046L42.0197 30.601C42.2086 30.4391 42.4 30.2685 42.643 30.3654C42.7511 30.4119 42.8345 30.4955 42.8788 30.5973C42.9375 30.736 42.9278 30.9078 42.8494 31.0994C42.702 31.4601 42.5156 31.5092 42.3511 31.5558L42.3412 31.5583L42.2773 31.5755L42.3363 31.6075C42.5867 31.7474 42.6309 31.7767 42.7633 31.8873L42.7805 31.9044L42.7977 31.8847C42.918 31.7596 42.972 31.7006 43.0775 31.5019C43.1193 31.4208 43.1586 31.3447 43.1928 31.2589C43.3844 30.7825 43.3107 30.4709 43.2469 30.3261C43.1586 30.1089 42.9769 29.9384 42.7387 29.8401Z" fill="#FEFEFE"/>
<path fill-rule="evenodd" clip-rule="evenodd" d="M43.5267 28.5391C43.1611 28.4423 42.891 28.3662 42.4958 28.2495L42.184 28.1587C41.4157 27.9182 41.3226 27.8862 41.1214 27.723L41.0844 27.6924L41.0772 27.7377C41.0624 27.8409 41.0428 27.9452 41.0132 28.0471C40.9838 28.1489 40.9421 28.2459 40.9003 28.3403L40.8979 28.3428L40.8809 28.3871L40.9274 28.3834C41.0084 28.3723 41.0599 28.3662 41.2342 28.3968C41.3618 28.4177 41.4256 28.4325 42.0614 28.603C42.0589 28.603 42.3682 28.6938 42.3682 28.6938C42.7192 28.7995 43.0138 28.8901 43.3868 29.0178C43.7183 29.1332 43.7845 29.1871 43.8655 29.2547L43.9024 29.2865L43.9071 29.2387C43.9244 29.1136 43.9416 29.0178 43.9686 28.9271C43.998 28.8215 44.0471 28.7184 44.0864 28.6337L44.1086 28.5882L44.0569 28.5932C43.8926 28.6177 43.8311 28.6165 43.5267 28.5391Z" fill="#FEFEFE"/>
<path fill-rule="evenodd" clip-rule="evenodd" d="M43.7795 25.6908C43.3132 25.6036 43.0774 25.913 42.8516 26.2135L42.8492 26.2184L42.7166 26.394C42.5866 26.5608 42.4392 26.7499 42.1766 26.7008C41.9582 26.6591 41.7544 26.4478 41.8257 26.0772C41.8919 25.7263 42.1079 25.6036 42.211 25.5422L42.2699 25.5077L42.2035 25.4931C41.9729 25.4416 41.9116 25.4269 41.7104 25.3286L41.6833 25.3164L41.671 25.3445C41.6538 25.3974 41.6488 25.4169 41.6022 25.5299L41.5753 25.606C41.5408 25.6834 41.4771 25.8491 41.4525 25.9791C41.3863 26.3166 41.4378 26.6283 41.5949 26.8554C41.7225 27.0493 41.9213 27.1745 42.1644 27.2187C42.611 27.3046 42.832 27.0519 42.9792 26.8849C42.9792 26.8849 43.2222 26.5854 43.2222 26.5842L43.2271 26.5805C43.3745 26.3816 43.5266 26.1778 43.7868 26.2269C43.9023 26.2491 44.0003 26.3128 44.0642 26.4062C44.1501 26.5303 44.1723 26.7033 44.1377 26.9019C44.0617 27.2849 43.8899 27.3733 43.7378 27.4493L43.7304 27.4543L43.6715 27.4838L43.7353 27.5034C44.0126 27.5892 44.0568 27.6114 44.2065 27.6924L44.2287 27.7046L44.2434 27.6826C44.3367 27.5352 44.3759 27.4667 44.4397 27.2505C44.4666 27.1584 44.4863 27.0739 44.506 26.9904C44.5993 26.4861 44.4619 26.1939 44.3734 26.065C44.2384 25.8711 44.0298 25.7386 43.7795 25.6908Z" fill="#FEFEFE"/>
</g>
<defs>
<clipPath id="clip0_400_1492">
<rect width="45" height="44.913" fill="white" transform="translate(0 0.0898438)"/>
</clipPath>
</defs>
</svg>
