<svg width="50" height="50" viewBox="0 0 50 50" fill="none" xmlns="http://www.w3.org/2000/svg">
<path d="M25 50C31.6304 50 37.9893 47.3661 42.6777 42.6777C47.3661 37.9893 50 31.6304 50 25C50 18.3696 47.3661 12.0107 42.6777 7.32233C37.9893 2.63392 31.6304 -1.38261e-06 25 -1.09278e-06L25 25L25 50Z" fill="#0A0A0A" fill-opacity="0.9"/>
<path d="M30.6562 25.3438C30.4688 25.1562 30.4688 24.8125 30.6562 24.625L35.6562 19.625C35.8438 19.4375 36.1875 19.4375 36.375 19.625C36.5625 19.8125 36.5625 20.1562 36.375 20.3438L31.7188 25L36.375 29.625C36.5625 29.8125 36.5625 30.1562 36.375 30.3438C36.1875 30.5312 35.8438 30.5312 35.6562 30.3438L30.6562 25.3438Z" fill="#FEFEFE"/>
</svg>
