<svg width="21" height="17" viewBox="0 0 21 17" fill="none" xmlns="http://www.w3.org/2000/svg">
<path d="M20.5929 2.49609H1.00701C0.827319 2.49609 0.737475 2.40625 0.737475 2.22656V1.14844C0.737475 1.01367 0.827319 0.878906 1.00701 0.878906H20.5929C20.7277 0.878906 20.8625 1.01367 20.8625 1.14844V2.22656C20.8625 2.40625 20.7277 2.49609 20.5929 2.49609ZM20.5929 9.68359H1.00701C0.827319 9.68359 0.737475 9.59375 0.737475 9.41406V8.33594C0.737475 8.20117 0.827319 8.06641 1.00701 8.06641H20.5929C20.7277 8.06641 20.8625 8.20117 20.8625 8.33594V9.41406C20.8625 9.59375 20.7277 9.68359 20.5929 9.68359ZM20.5929 16.8711H1.00701C0.827319 16.8711 0.737475 16.7812 0.737475 16.6016V15.5234C0.737475 15.3887 0.827319 15.2539 1.00701 15.2539H20.5929C20.7277 15.2539 20.8625 15.3887 20.8625 15.5234V16.6016C20.8625 16.7812 20.7277 16.8711 20.5929 16.8711Z" fill="#C5CCD3"/>
</svg>
