<svg width="26" height="46" viewBox="0 0 26 46" fill="none" xmlns="http://www.w3.org/2000/svg">
<path d="M9.5 15C9.75 15 10 15.25 10 15.5V17H16V15.5C16 15.25 16.2188 15 16.5 15C16.75 15 17 15.25 17 15.5V17H18C19.0938 17 20 17.9062 20 19V20V21V29C20 30.125 19.0938 31 18 31H8C6.875 31 6 30.125 6 29V21V20V19C6 17.9062 6.875 17 8 17H9V15.5C9 15.25 9.21875 15 9.5 15ZM19 21H7V29C7 29.5625 7.4375 30 8 30H18C18.5312 30 19 29.5625 19 29V21ZM18 18H8C7.4375 18 7 18.4688 7 19V20H19V19C19 18.4688 18.5312 18 18 18Z" fill="#FEFEFE"/>
</svg>
