<svg width="50" height="50" viewBox="0 0 50 50" fill="none" xmlns="http://www.w3.org/2000/svg">
<path d="M25 -1.09278e-06C21.717 -9.49278e-07 18.4661 0.646644 15.4329 1.90301C12.3998 3.15938 9.64379 5.00087 7.32233 7.32233C5.00086 9.64379 3.15938 12.3998 1.90301 15.4329C0.646642 18.4661 -1.3798e-06 21.717 -1.09278e-06 25C-8.05772e-07 28.283 0.646644 31.5339 1.90301 34.5671C3.15938 37.6002 5.00087 40.3562 7.32233 42.6777C9.6438 44.9991 12.3998 46.8406 15.4329 48.097C18.4661 49.3534 21.717 50 25 50L25 25L25 -1.09278e-06Z" fill="#0A0A0A" fill-opacity="0.9"/>
<path d="M17.3438 24.6562C17.5312 24.8438 17.5312 25.1875 17.3438 25.375L12.3437 30.375C12.1562 30.5625 11.8125 30.5625 11.625 30.375C11.4375 30.1875 11.4375 29.8438 11.625 29.6562L16.2812 25L11.625 20.375C11.4375 20.1875 11.4375 19.8438 11.625 19.6562C11.8125 19.4688 12.1562 19.4688 12.3438 19.6562L17.3438 24.6562Z" fill="#FEFEFE"/>
</svg>
