<svg width="26" height="46" viewBox="0 0 26 46" fill="none" xmlns="http://www.w3.org/2000/svg">
<path d="M13 16C10.4688 16 8.1875 17.3438 6.9375 19.5C5.65625 21.6875 5.65625 24.3438 6.9375 26.5C8.1875 28.6875 10.4688 30 13 30C15.5 30 17.7812 28.6875 19.0312 26.5C20.3125 24.3438 20.3125 21.6875 19.0312 19.5C17.7812 17.3438 15.5 16 13 16ZM13 31C10.125 31 7.5 29.5 6.0625 27C4.625 24.5312 4.625 21.5 6.0625 19C7.5 16.5312 10.125 15 13 15C15.8438 15 18.4688 16.5312 19.9062 19C21.3438 21.5 21.3438 24.5312 19.9062 27C18.4688 29.5 15.8438 31 13 31ZM11.5 26H12.5V23H11.75C11.4688 23 11.25 22.7812 11.25 22.5C11.25 22.25 11.4688 22 11.75 22H13C13.25 22 13.5 22.25 13.5 22.5V26H14.5C14.75 26 15 26.25 15 26.5C15 26.7812 14.75 27 14.5 27H11.5C11.2188 27 11 26.7812 11 26.5C11 26.25 11.2188 26 11.5 26ZM13 20.75C12.5625 20.75 12.25 20.4375 12.25 20C12.25 19.5938 12.5625 19.25 13 19.25C13.4062 19.25 13.75 19.5938 13.75 20C13.75 20.4375 13.4062 20.75 13 20.75Z" fill="#FEFEFE"/>
</svg>
