<svg width="30" height="30" viewBox="0 0 30 30" fill="none" xmlns="http://www.w3.org/2000/svg">
<path d="M0 15C0 6.71573 6.71573 0 15 0C23.2843 0 30 6.71573 30 15C30 23.2843 23.2843 30 15 30C6.71573 30 0 23.2843 0 15Z" fill="#FEFEFE"/>
<path d="M18.3438 14.6562C18.5312 14.8438 18.5312 15.1875 18.3438 15.375L13.3438 20.375C13.1562 20.5625 12.8125 20.5625 12.625 20.375C12.4375 20.1875 12.4375 19.8438 12.625 19.6562L17.2812 15L12.625 10.375C12.4375 10.1875 12.4375 9.84375 12.625 9.65625C12.8125 9.46875 13.1562 9.46875 13.3438 9.65625L18.3438 14.6562Z" fill="#003D73"/>
</svg>
