<svg width="26" height="46" viewBox="0 0 26 46" fill="none" xmlns="http://www.w3.org/2000/svg">
<path d="M7.5 15H18.5C18.75 15 19 15.25 19 15.5C19 15.7812 18.75 16 18.5 16H18V17.4062C18 18.4062 17.6562 19.3438 17.0625 20.1562L14.875 23L17.0625 25.875C17.6562 26.6562 18 27.625 18 28.625V30H18.5C18.75 30 19 30.25 19 30.5C19 30.7812 18.75 31 18.5 31H7.5C7.21875 31 7 30.7812 7 30.5C7 30.25 7.21875 30 7.5 30H8V28.625C8 27.625 8.3125 26.6562 8.90625 25.875L11.0938 23L8.90625 20.1562C8.3125 19.375 8 18.4062 8 17.4062V16H7.5C7.21875 16 7 15.7812 7 15.5C7 15.25 7.21875 15 7.5 15ZM17 16H9V17.4062C9 18.1875 9.25 18.9375 9.71875 19.5312L12.125 22.7188C12.2812 22.875 12.2812 23.125 12.125 23.3125L9.71875 26.5C9.25 27.0938 9 27.8438 9 28.625V30H17V28.625C17 27.8438 16.7188 27.0938 16.2812 26.5L13.8438 23.3125C13.6875 23.125 13.6875 22.875 13.8438 22.7188L16.2812 19.5312C16.7188 18.9375 17 18.1875 17 17.4062V16Z" fill="#FEFEFE"/>
</svg>
