<svg width="17" height="17" viewBox="0 0 17 17" fill="none" xmlns="http://www.w3.org/2000/svg">
<path d="M12.6 7C12.6 5.0625 11.5375 3.25 9.84998 2.25C8.13123 1.28125 6.03748 1.28125 4.34998 2.25C2.63123 3.25 1.59998 5.0625 1.59998 7C1.59998 8.96875 2.63123 10.7812 4.34998 11.7812C6.03748 12.75 8.13123 12.75 9.84998 11.7812C11.5375 10.7812 12.6 8.96875 12.6 7ZM11.3187 11.9375C10.1937 12.9375 8.69373 13.5 7.09998 13.5C3.50623 13.5 0.599976 10.5938 0.599976 7C0.599976 3.4375 3.50623 0.5 7.09998 0.5C10.6625 0.5 13.6 3.4375 13.6 7C13.6 8.625 13.0062 10.0938 12.0375 11.25L16.4437 15.6562C16.6312 15.8438 16.6312 16.1875 16.4437 16.375C16.2562 16.5625 15.9125 16.5625 15.725 16.375L11.3187 11.9375Z" fill="#C5CCD3"/>
</svg>
